G04 #@! TF.FileFunction,Soldermask,Top*
%FSLAX46Y46*%
G04 Gerber Fmt 4.6, Leading zero omitted, Abs format (unit mm)*
G04 Created by KiCad (PCBNEW 4.0.4+e1-6308~48~ubuntu14.04.1-stable) date Sun Sep  4 20:51:27 2016*
%MOMM*%
%LPD*%
G01*
G04 APERTURE LIST*
%ADD10C,0.100000*%
%ADD11R,1.727200X1.727200*%
%ADD12O,1.727200X1.727200*%
%ADD13O,1.506220X3.014980*%
%ADD14R,2.540000X2.540000*%
%ADD15C,2.540000*%
%ADD16R,2.000000X1.600000*%
%ADD17R,1.300000X1.300000*%
%ADD18C,1.300000*%
%ADD19R,1.600000X2.000000*%
%ADD20R,4.500880X2.900680*%
%ADD21C,3.810000*%
%ADD22C,3.556000*%
%ADD23O,2.032000X1.727200*%
%ADD24R,1.300000X1.500000*%
%ADD25R,1.500000X1.300000*%
%ADD26R,1.143000X0.508000*%
%ADD27O,0.899160X1.501140*%
%ADD28O,2.540000X2.032000*%
%ADD29O,3.014980X1.506220*%
%ADD30C,0.254000*%
G04 APERTURE END LIST*
D10*
D11*
X121666000Y-84455000D03*
D12*
X124206000Y-84455000D03*
X121666000Y-81915000D03*
X124206000Y-81915000D03*
X121666000Y-79375000D03*
X124206000Y-79375000D03*
X121666000Y-76835000D03*
X124206000Y-76835000D03*
X121666000Y-74295000D03*
X124206000Y-74295000D03*
D13*
X124142500Y-110617000D03*
X121602500Y-110617000D03*
X119062500Y-110617000D03*
X116522500Y-110617000D03*
X113982500Y-110617000D03*
X111442500Y-110617000D03*
D14*
X151130000Y-110236000D03*
D15*
X146050000Y-110236000D03*
D16*
X119920000Y-66040000D03*
X123920000Y-66040000D03*
D17*
X164338000Y-103124000D03*
D18*
X164338000Y-105624000D03*
D19*
X159258000Y-102394000D03*
X159258000Y-106394000D03*
X159258000Y-112744000D03*
X159258000Y-108744000D03*
D17*
X164338000Y-112014000D03*
D18*
X164338000Y-109514000D03*
D20*
X167640000Y-77640180D03*
X167640000Y-67139820D03*
X93980000Y-77640180D03*
X93980000Y-67139820D03*
X153670000Y-77640180D03*
X153670000Y-67139820D03*
X78740000Y-77640180D03*
X78740000Y-67139820D03*
X138430000Y-77640180D03*
X138430000Y-67139820D03*
X107950000Y-77640180D03*
X107950000Y-67139820D03*
D13*
X121031000Y-94996000D03*
X123571000Y-94996000D03*
D21*
X78105000Y-110109000D03*
D22*
X81280000Y-106934000D03*
D21*
X84455000Y-110109000D03*
X78105000Y-103759000D03*
X84455000Y-103759000D03*
D23*
X130810000Y-102870000D03*
X130810000Y-100330000D03*
X130810000Y-97790000D03*
X130810000Y-95250000D03*
X130810000Y-92710000D03*
X130810000Y-90170000D03*
X130810000Y-87630000D03*
X130810000Y-85090000D03*
X130810000Y-82550000D03*
X130810000Y-80010000D03*
X130810000Y-77470000D03*
X130810000Y-74930000D03*
X130810000Y-72390000D03*
X130810000Y-69850000D03*
X130810000Y-67310000D03*
X115570000Y-102870000D03*
X115570000Y-100330000D03*
X115570000Y-97790000D03*
X115570000Y-95250000D03*
X115570000Y-92710000D03*
X115570000Y-90170000D03*
X115570000Y-87630000D03*
X115570000Y-85090000D03*
X115570000Y-82550000D03*
X115570000Y-80010000D03*
X115570000Y-77470000D03*
X115570000Y-74930000D03*
X115570000Y-72390000D03*
X115570000Y-69850000D03*
X115570000Y-67310000D03*
D24*
X92964000Y-105363000D03*
X92964000Y-102663000D03*
X92837000Y-109521000D03*
X92837000Y-112221000D03*
D25*
X106506000Y-107442000D03*
X103806000Y-107442000D03*
D24*
X103632000Y-112094000D03*
X103632000Y-109394000D03*
X103632000Y-102790000D03*
X103632000Y-105490000D03*
D26*
X94996000Y-103632000D03*
X94996000Y-104902000D03*
X94996000Y-106172000D03*
X94996000Y-107442000D03*
X94996000Y-108712000D03*
X94996000Y-109982000D03*
X94996000Y-111252000D03*
X101346000Y-111252000D03*
X101346000Y-109982000D03*
X101346000Y-107442000D03*
X101346000Y-106172000D03*
X101346000Y-104902000D03*
X101346000Y-103632000D03*
X101346000Y-108712000D03*
D27*
X110490000Y-102870000D03*
X109220000Y-102870000D03*
X111760000Y-102870000D03*
X136461500Y-102997000D03*
X135191500Y-102997000D03*
X137731500Y-102997000D03*
D28*
X169418000Y-108204000D03*
X169418000Y-110744000D03*
X169418000Y-105664000D03*
D29*
X129794000Y-107442000D03*
X129794000Y-109982000D03*
X129794000Y-112522000D03*
X136779000Y-107569000D03*
X136779000Y-110109000D03*
X136779000Y-112649000D03*
D30*
G36*
X81153000Y-91313000D02*
X76327000Y-91313000D01*
X76327000Y-86487000D01*
X81153000Y-86487000D01*
X81153000Y-91313000D01*
X81153000Y-91313000D01*
G37*
X81153000Y-91313000D02*
X76327000Y-91313000D01*
X76327000Y-86487000D01*
X81153000Y-86487000D01*
X81153000Y-91313000D01*
G36*
X96393000Y-91313000D02*
X91567000Y-91313000D01*
X91567000Y-86487000D01*
X96393000Y-86487000D01*
X96393000Y-91313000D01*
X96393000Y-91313000D01*
G37*
X96393000Y-91313000D02*
X91567000Y-91313000D01*
X91567000Y-86487000D01*
X96393000Y-86487000D01*
X96393000Y-91313000D01*
G36*
X109093000Y-84963000D02*
X104267000Y-84963000D01*
X104267000Y-80137000D01*
X109093000Y-80137000D01*
X109093000Y-84963000D01*
X109093000Y-84963000D01*
G37*
X109093000Y-84963000D02*
X104267000Y-84963000D01*
X104267000Y-80137000D01*
X109093000Y-80137000D01*
X109093000Y-84963000D01*
G36*
X109093000Y-96393000D02*
X104267000Y-96393000D01*
X104267000Y-91567000D01*
X109093000Y-91567000D01*
X109093000Y-96393000D01*
X109093000Y-96393000D01*
G37*
X109093000Y-96393000D02*
X104267000Y-96393000D01*
X104267000Y-91567000D01*
X109093000Y-91567000D01*
X109093000Y-96393000D01*
G36*
X140843000Y-84963000D02*
X136017000Y-84963000D01*
X136017000Y-80137000D01*
X140843000Y-80137000D01*
X140843000Y-84963000D01*
X140843000Y-84963000D01*
G37*
X140843000Y-84963000D02*
X136017000Y-84963000D01*
X136017000Y-80137000D01*
X140843000Y-80137000D01*
X140843000Y-84963000D01*
G36*
X140843000Y-96393000D02*
X136017000Y-96393000D01*
X136017000Y-91567000D01*
X140843000Y-91567000D01*
X140843000Y-96393000D01*
X140843000Y-96393000D01*
G37*
X140843000Y-96393000D02*
X136017000Y-96393000D01*
X136017000Y-91567000D01*
X140843000Y-91567000D01*
X140843000Y-96393000D01*
G36*
X156083000Y-91313000D02*
X151257000Y-91313000D01*
X151257000Y-86487000D01*
X156083000Y-86487000D01*
X156083000Y-91313000D01*
X156083000Y-91313000D01*
G37*
X156083000Y-91313000D02*
X151257000Y-91313000D01*
X151257000Y-86487000D01*
X156083000Y-86487000D01*
X156083000Y-91313000D01*
G36*
X170053000Y-91313000D02*
X165227000Y-91313000D01*
X165227000Y-86487000D01*
X170053000Y-86487000D01*
X170053000Y-91313000D01*
X170053000Y-91313000D01*
G37*
X170053000Y-91313000D02*
X165227000Y-91313000D01*
X165227000Y-86487000D01*
X170053000Y-86487000D01*
X170053000Y-91313000D01*
M02*
