%FSLAX45Y45*%
G04 Gerber Fmt 4.5, Leading zero omitted, Abs format (unit mm)*
G04 Created by KiCad (PCBNEW 4.0.4+e1-6308~48~ubuntu14.04.1-stable) date Sun Sep  4 20:51:31 2016*
%MOMM*%
%LPD*%
G01*
G04 APERTURE LIST*
%ADD10C,0.127000*%
%ADD11C,0.100000*%
%ADD12C,0.200000*%
%ADD13C,0.300000*%
G04 APERTURE END LIST*
D10*
D11*
X7366000Y-11430000D02*
X7366000Y-6477000D01*
X17272000Y-11430000D02*
X7366000Y-11430000D01*
X17272000Y-6477000D02*
X17272000Y-11430000D01*
X7366000Y-6477000D02*
X17272000Y-6477000D01*
D12*
X7663500Y-8679500D02*
X7703500Y-8719500D01*
X7703500Y-8679500D02*
X7663500Y-8719500D01*
X7663500Y-8743000D02*
X7703500Y-8783000D01*
X7703500Y-8743000D02*
X7663500Y-8783000D01*
X7663500Y-8806500D02*
X7703500Y-8846500D01*
X7703500Y-8806500D02*
X7663500Y-8846500D01*
X7663500Y-8870000D02*
X7703500Y-8910000D01*
X7703500Y-8870000D02*
X7663500Y-8910000D01*
X7663500Y-8933500D02*
X7703500Y-8973500D01*
X7703500Y-8933500D02*
X7663500Y-8973500D01*
X7663500Y-8997000D02*
X7703500Y-9037000D01*
X7703500Y-8997000D02*
X7663500Y-9037000D01*
X7663500Y-9060500D02*
X7703500Y-9100500D01*
X7703500Y-9060500D02*
X7663500Y-9100500D01*
X7727000Y-8679500D02*
X7767000Y-8719500D01*
X7767000Y-8679500D02*
X7727000Y-8719500D01*
X7727000Y-8743000D02*
X7767000Y-8783000D01*
X7767000Y-8743000D02*
X7727000Y-8783000D01*
X7727000Y-8806500D02*
X7767000Y-8846500D01*
X7767000Y-8806500D02*
X7727000Y-8846500D01*
X7727000Y-8870000D02*
X7767000Y-8910000D01*
X7767000Y-8870000D02*
X7727000Y-8910000D01*
X7727000Y-8933500D02*
X7767000Y-8973500D01*
X7767000Y-8933500D02*
X7727000Y-8973500D01*
X7727000Y-8997000D02*
X7767000Y-9037000D01*
X7767000Y-8997000D02*
X7727000Y-9037000D01*
X7727000Y-9060500D02*
X7767000Y-9100500D01*
X7767000Y-9060500D02*
X7727000Y-9100500D01*
X7745796Y-7219000D02*
X7785796Y-7259000D01*
X7785796Y-7219000D02*
X7745796Y-7259000D01*
X7790500Y-8679500D02*
X7830500Y-8719500D01*
X7830500Y-8679500D02*
X7790500Y-8719500D01*
X7790500Y-8743000D02*
X7830500Y-8783000D01*
X7830500Y-8743000D02*
X7790500Y-8783000D01*
X7790500Y-8806500D02*
X7830500Y-8846500D01*
X7830500Y-8806500D02*
X7790500Y-8846500D01*
X7790500Y-8870000D02*
X7830500Y-8910000D01*
X7830500Y-8870000D02*
X7790500Y-8910000D01*
X7790500Y-8933500D02*
X7830500Y-8973500D01*
X7830500Y-8933500D02*
X7790500Y-8973500D01*
X7790500Y-8997000D02*
X7830500Y-9037000D01*
X7830500Y-8997000D02*
X7790500Y-9037000D01*
X7790500Y-9060500D02*
X7830500Y-9100500D01*
X7830500Y-9060500D02*
X7790500Y-9100500D01*
X7854000Y-6698300D02*
X7894000Y-6738300D01*
X7894000Y-6698300D02*
X7854000Y-6738300D01*
X7854000Y-7752400D02*
X7894000Y-7792400D01*
X7894000Y-7752400D02*
X7854000Y-7792400D01*
X7854000Y-8679500D02*
X7894000Y-8719500D01*
X7894000Y-8679500D02*
X7854000Y-8719500D01*
X7854000Y-8743000D02*
X7894000Y-8783000D01*
X7894000Y-8743000D02*
X7854000Y-8783000D01*
X7854000Y-8806500D02*
X7894000Y-8846500D01*
X7894000Y-8806500D02*
X7854000Y-8846500D01*
X7854000Y-8870000D02*
X7894000Y-8910000D01*
X7894000Y-8870000D02*
X7854000Y-8910000D01*
X7854000Y-8933500D02*
X7894000Y-8973500D01*
X7894000Y-8933500D02*
X7854000Y-8973500D01*
X7854000Y-8997000D02*
X7894000Y-9037000D01*
X7894000Y-8997000D02*
X7854000Y-9037000D01*
X7854000Y-9060500D02*
X7894000Y-9100500D01*
X7894000Y-9060500D02*
X7854000Y-9100500D01*
X7917500Y-8679500D02*
X7957500Y-8719500D01*
X7957500Y-8679500D02*
X7917500Y-8719500D01*
X7917500Y-8743000D02*
X7957500Y-8783000D01*
X7957500Y-8743000D02*
X7917500Y-8783000D01*
X7917500Y-8806500D02*
X7957500Y-8846500D01*
X7957500Y-8806500D02*
X7917500Y-8846500D01*
X7917500Y-8870000D02*
X7957500Y-8910000D01*
X7957500Y-8870000D02*
X7917500Y-8910000D01*
X7917500Y-8933500D02*
X7957500Y-8973500D01*
X7957500Y-8933500D02*
X7917500Y-8973500D01*
X7917500Y-8997000D02*
X7957500Y-9037000D01*
X7957500Y-8997000D02*
X7917500Y-9037000D01*
X7917500Y-9060500D02*
X7957500Y-9100500D01*
X7957500Y-9060500D02*
X7917500Y-9100500D01*
X7981000Y-8679500D02*
X8021000Y-8719500D01*
X8021000Y-8679500D02*
X7981000Y-8719500D01*
X7981000Y-8743000D02*
X8021000Y-8783000D01*
X8021000Y-8743000D02*
X7981000Y-8783000D01*
X7981000Y-8806500D02*
X8021000Y-8846500D01*
X8021000Y-8806500D02*
X7981000Y-8846500D01*
X7981000Y-8870000D02*
X8021000Y-8910000D01*
X8021000Y-8870000D02*
X7981000Y-8910000D01*
X7981000Y-8933500D02*
X8021000Y-8973500D01*
X8021000Y-8933500D02*
X7981000Y-8973500D01*
X7981000Y-8997000D02*
X8021000Y-9037000D01*
X8021000Y-8997000D02*
X7981000Y-9037000D01*
X7981000Y-9060500D02*
X8021000Y-9100500D01*
X8021000Y-9060500D02*
X7981000Y-9100500D01*
X8044500Y-8679500D02*
X8084500Y-8719500D01*
X8084500Y-8679500D02*
X8044500Y-8719500D01*
X8044500Y-8743000D02*
X8084500Y-8783000D01*
X8084500Y-8743000D02*
X8044500Y-8783000D01*
X8044500Y-8806500D02*
X8084500Y-8846500D01*
X8084500Y-8806500D02*
X8044500Y-8846500D01*
X8044500Y-8870000D02*
X8084500Y-8910000D01*
X8084500Y-8870000D02*
X8044500Y-8910000D01*
X8044500Y-8933500D02*
X8084500Y-8973500D01*
X8084500Y-8933500D02*
X8044500Y-8973500D01*
X8044500Y-8997000D02*
X8084500Y-9037000D01*
X8084500Y-8997000D02*
X8044500Y-9037000D01*
X8044500Y-9060500D02*
X8084500Y-9100500D01*
X8084500Y-9060500D02*
X8044500Y-9100500D01*
X8215950Y-7371400D02*
X8255950Y-7411400D01*
X8255950Y-7371400D02*
X8215950Y-7411400D01*
X8216204Y-7068886D02*
X8256204Y-7108886D01*
X8256204Y-7068886D02*
X8216204Y-7108886D01*
X8222300Y-7219000D02*
X8262300Y-7259000D01*
X8262300Y-7219000D02*
X8222300Y-7259000D01*
X8552500Y-8108000D02*
X8592500Y-8148000D01*
X8592500Y-8108000D02*
X8552500Y-8148000D01*
X8552500Y-8235000D02*
X8592500Y-8275000D01*
X8592500Y-8235000D02*
X8552500Y-8275000D01*
X8679500Y-8108000D02*
X8719500Y-8148000D01*
X8719500Y-8108000D02*
X8679500Y-8148000D01*
X8679500Y-8235000D02*
X8719500Y-8275000D01*
X8719500Y-8235000D02*
X8679500Y-8275000D01*
X9136700Y-7219000D02*
X9176700Y-7259000D01*
X9176700Y-7219000D02*
X9136700Y-7259000D01*
X9187500Y-8679500D02*
X9227500Y-8719500D01*
X9227500Y-8679500D02*
X9187500Y-8719500D01*
X9187500Y-8743000D02*
X9227500Y-8783000D01*
X9227500Y-8743000D02*
X9187500Y-8783000D01*
X9187500Y-8806500D02*
X9227500Y-8846500D01*
X9227500Y-8806500D02*
X9187500Y-8846500D01*
X9187500Y-8870000D02*
X9227500Y-8910000D01*
X9227500Y-8870000D02*
X9187500Y-8910000D01*
X9187500Y-8933500D02*
X9227500Y-8973500D01*
X9227500Y-8933500D02*
X9187500Y-8973500D01*
X9187500Y-8997000D02*
X9227500Y-9037000D01*
X9227500Y-8997000D02*
X9187500Y-9037000D01*
X9187500Y-9060500D02*
X9227500Y-9100500D01*
X9227500Y-9060500D02*
X9187500Y-9100500D01*
X9251000Y-8679500D02*
X9291000Y-8719500D01*
X9291000Y-8679500D02*
X9251000Y-8719500D01*
X9251000Y-8743000D02*
X9291000Y-8783000D01*
X9291000Y-8743000D02*
X9251000Y-8783000D01*
X9251000Y-8806500D02*
X9291000Y-8846500D01*
X9291000Y-8806500D02*
X9251000Y-8846500D01*
X9251000Y-8870000D02*
X9291000Y-8910000D01*
X9291000Y-8870000D02*
X9251000Y-8910000D01*
X9251000Y-8933500D02*
X9291000Y-8973500D01*
X9291000Y-8933500D02*
X9251000Y-8973500D01*
X9251000Y-8997000D02*
X9291000Y-9037000D01*
X9291000Y-8997000D02*
X9251000Y-9037000D01*
X9251000Y-9060500D02*
X9291000Y-9100500D01*
X9291000Y-9060500D02*
X9251000Y-9100500D01*
X9263700Y-11206800D02*
X9303700Y-11246800D01*
X9303700Y-11206800D02*
X9263700Y-11246800D01*
X9276400Y-10241600D02*
X9316400Y-10281600D01*
X9316400Y-10241600D02*
X9276400Y-10281600D01*
X9314500Y-8679500D02*
X9354500Y-8719500D01*
X9354500Y-8679500D02*
X9314500Y-8719500D01*
X9314500Y-8743000D02*
X9354500Y-8783000D01*
X9354500Y-8743000D02*
X9314500Y-8783000D01*
X9314500Y-8806500D02*
X9354500Y-8846500D01*
X9354500Y-8806500D02*
X9314500Y-8846500D01*
X9314500Y-8870000D02*
X9354500Y-8910000D01*
X9354500Y-8870000D02*
X9314500Y-8910000D01*
X9314500Y-8933500D02*
X9354500Y-8973500D01*
X9354500Y-8933500D02*
X9314500Y-8973500D01*
X9314500Y-8997000D02*
X9354500Y-9037000D01*
X9354500Y-8997000D02*
X9314500Y-9037000D01*
X9314500Y-9060500D02*
X9354500Y-9100500D01*
X9354500Y-9060500D02*
X9314500Y-9100500D01*
X9358950Y-10381300D02*
X9398950Y-10421300D01*
X9398950Y-10381300D02*
X9358950Y-10421300D01*
X9378000Y-6698300D02*
X9418000Y-6738300D01*
X9418000Y-6698300D02*
X9378000Y-6738300D01*
X9378000Y-7752400D02*
X9418000Y-7792400D01*
X9418000Y-7752400D02*
X9378000Y-7792400D01*
X9378000Y-8679500D02*
X9418000Y-8719500D01*
X9418000Y-8679500D02*
X9378000Y-8719500D01*
X9378000Y-8743000D02*
X9418000Y-8783000D01*
X9418000Y-8743000D02*
X9378000Y-8783000D01*
X9378000Y-8806500D02*
X9418000Y-8846500D01*
X9418000Y-8806500D02*
X9378000Y-8846500D01*
X9378000Y-8870000D02*
X9418000Y-8910000D01*
X9418000Y-8870000D02*
X9378000Y-8910000D01*
X9378000Y-8933500D02*
X9418000Y-8973500D01*
X9418000Y-8933500D02*
X9378000Y-8973500D01*
X9378000Y-8997000D02*
X9418000Y-9037000D01*
X9418000Y-8997000D02*
X9378000Y-9037000D01*
X9378000Y-9060500D02*
X9418000Y-9100500D01*
X9418000Y-9060500D02*
X9378000Y-9100500D01*
X9441500Y-8679500D02*
X9481500Y-8719500D01*
X9481500Y-8679500D02*
X9441500Y-8719500D01*
X9441500Y-8743000D02*
X9481500Y-8783000D01*
X9481500Y-8743000D02*
X9441500Y-8783000D01*
X9441500Y-8806500D02*
X9481500Y-8846500D01*
X9481500Y-8806500D02*
X9441500Y-8846500D01*
X9441500Y-8870000D02*
X9481500Y-8910000D01*
X9481500Y-8870000D02*
X9441500Y-8910000D01*
X9441500Y-8933500D02*
X9481500Y-8973500D01*
X9481500Y-8933500D02*
X9441500Y-8973500D01*
X9441500Y-8997000D02*
X9481500Y-9037000D01*
X9481500Y-8997000D02*
X9441500Y-9037000D01*
X9441500Y-9060500D02*
X9481500Y-9100500D01*
X9481500Y-9060500D02*
X9441500Y-9100500D01*
X9479600Y-9879650D02*
X9519600Y-9919650D01*
X9519600Y-9879650D02*
X9479600Y-9919650D01*
X9479600Y-10241600D02*
X9519600Y-10281600D01*
X9519600Y-10241600D02*
X9479600Y-10281600D01*
X9479600Y-10978200D02*
X9519600Y-11018200D01*
X9519600Y-10978200D02*
X9479600Y-11018200D01*
X9479600Y-11219500D02*
X9519600Y-11259500D01*
X9519600Y-11219500D02*
X9479600Y-11259500D01*
X9505000Y-8679500D02*
X9545000Y-8719500D01*
X9545000Y-8679500D02*
X9505000Y-8719500D01*
X9505000Y-8743000D02*
X9545000Y-8783000D01*
X9545000Y-8743000D02*
X9505000Y-8783000D01*
X9505000Y-8806500D02*
X9545000Y-8846500D01*
X9545000Y-8806500D02*
X9505000Y-8846500D01*
X9505000Y-8870000D02*
X9545000Y-8910000D01*
X9545000Y-8870000D02*
X9505000Y-8910000D01*
X9505000Y-8933500D02*
X9545000Y-8973500D01*
X9545000Y-8933500D02*
X9505000Y-8973500D01*
X9505000Y-8997000D02*
X9545000Y-9037000D01*
X9545000Y-8997000D02*
X9505000Y-9037000D01*
X9505000Y-9060500D02*
X9545000Y-9100500D01*
X9545000Y-9060500D02*
X9505000Y-9100500D01*
X9568500Y-8679500D02*
X9608500Y-8719500D01*
X9608500Y-8679500D02*
X9568500Y-8719500D01*
X9568500Y-8743000D02*
X9608500Y-8783000D01*
X9608500Y-8743000D02*
X9568500Y-8783000D01*
X9568500Y-8806500D02*
X9608500Y-8846500D01*
X9608500Y-8806500D02*
X9568500Y-8846500D01*
X9568500Y-8870000D02*
X9608500Y-8910000D01*
X9608500Y-8870000D02*
X9568500Y-8910000D01*
X9568500Y-8933500D02*
X9608500Y-8973500D01*
X9608500Y-8933500D02*
X9568500Y-8973500D01*
X9568500Y-8997000D02*
X9608500Y-9037000D01*
X9608500Y-8997000D02*
X9568500Y-9037000D01*
X9568500Y-9060500D02*
X9608500Y-9100500D01*
X9608500Y-9060500D02*
X9568500Y-9100500D01*
X9612950Y-7371400D02*
X9652950Y-7411400D01*
X9652950Y-7371400D02*
X9612950Y-7411400D01*
X9613204Y-7074000D02*
X9653204Y-7114000D01*
X9653204Y-7074000D02*
X9613204Y-7114000D01*
X9619300Y-7219000D02*
X9659300Y-7259000D01*
X9659300Y-7219000D02*
X9619300Y-7259000D01*
X9638350Y-9752650D02*
X9678350Y-9792650D01*
X9678350Y-9752650D02*
X9638350Y-9792650D01*
X9644700Y-10578150D02*
X9684700Y-10618150D01*
X9684700Y-10578150D02*
X9644700Y-10618150D01*
X9746300Y-10235250D02*
X9786300Y-10275250D01*
X9786300Y-10235250D02*
X9746300Y-10275250D01*
X9746300Y-11041700D02*
X9786300Y-11081700D01*
X9786300Y-11041700D02*
X9746300Y-11081700D01*
X9809800Y-10724200D02*
X9849800Y-10764200D01*
X9849800Y-10724200D02*
X9809800Y-10764200D01*
X9828850Y-11352850D02*
X9868850Y-11392850D01*
X9868850Y-11352850D02*
X9828850Y-11392850D01*
X9854250Y-9886000D02*
X9894250Y-9926000D01*
X9894250Y-9886000D02*
X9854250Y-9926000D01*
X9860600Y-8704900D02*
X9900600Y-8744900D01*
X9900600Y-8704900D02*
X9860600Y-8744900D01*
X9924100Y-9251000D02*
X9964100Y-9291000D01*
X9964100Y-9251000D02*
X9924100Y-9291000D01*
X9955850Y-10857550D02*
X9995850Y-10897550D01*
X9995850Y-10857550D02*
X9955850Y-10897550D01*
X10013000Y-8844600D02*
X10053000Y-8884600D01*
X10053000Y-8844600D02*
X10013000Y-8884600D01*
X10114600Y-10241600D02*
X10154600Y-10281600D01*
X10154600Y-10241600D02*
X10114600Y-10281600D01*
X10114600Y-10470200D02*
X10154600Y-10510200D01*
X10154600Y-10470200D02*
X10114600Y-10510200D01*
X10114600Y-10978200D02*
X10154600Y-11018200D01*
X10154600Y-10978200D02*
X10114600Y-11018200D01*
X10114600Y-11219500D02*
X10154600Y-11259500D01*
X10154600Y-11219500D02*
X10114600Y-11259500D01*
X10360600Y-10724200D02*
X10400600Y-10764200D01*
X10400600Y-10724200D02*
X10360600Y-10764200D01*
X10362250Y-10082850D02*
X10402250Y-10122850D01*
X10402250Y-10082850D02*
X10362250Y-10122850D01*
X10457500Y-8044500D02*
X10497500Y-8084500D01*
X10497500Y-8044500D02*
X10457500Y-8084500D01*
X10457500Y-8108000D02*
X10497500Y-8148000D01*
X10497500Y-8108000D02*
X10457500Y-8148000D01*
X10457500Y-8171500D02*
X10497500Y-8211500D01*
X10497500Y-8171500D02*
X10457500Y-8211500D01*
X10457500Y-8235000D02*
X10497500Y-8275000D01*
X10497500Y-8235000D02*
X10457500Y-8275000D01*
X10457500Y-8298500D02*
X10497500Y-8338500D01*
X10497500Y-8298500D02*
X10457500Y-8338500D01*
X10457500Y-8362000D02*
X10497500Y-8402000D01*
X10497500Y-8362000D02*
X10457500Y-8402000D01*
X10457500Y-8425500D02*
X10497500Y-8465500D01*
X10497500Y-8425500D02*
X10457500Y-8465500D01*
X10457500Y-9187500D02*
X10497500Y-9227500D01*
X10497500Y-9187500D02*
X10457500Y-9227500D01*
X10457500Y-9251000D02*
X10497500Y-9291000D01*
X10497500Y-9251000D02*
X10457500Y-9291000D01*
X10457500Y-9314500D02*
X10497500Y-9354500D01*
X10497500Y-9314500D02*
X10457500Y-9354500D01*
X10457500Y-9378000D02*
X10497500Y-9418000D01*
X10497500Y-9378000D02*
X10457500Y-9418000D01*
X10457500Y-9441500D02*
X10497500Y-9481500D01*
X10497500Y-9441500D02*
X10457500Y-9481500D01*
X10457500Y-9505000D02*
X10497500Y-9545000D01*
X10497500Y-9505000D02*
X10457500Y-9545000D01*
X10457500Y-9568500D02*
X10497500Y-9608500D01*
X10497500Y-9568500D02*
X10457500Y-9608500D01*
X10495600Y-11060750D02*
X10535600Y-11100750D01*
X10535600Y-11060750D02*
X10495600Y-11100750D01*
X10521000Y-8044500D02*
X10561000Y-8084500D01*
X10561000Y-8044500D02*
X10521000Y-8084500D01*
X10521000Y-8108000D02*
X10561000Y-8148000D01*
X10561000Y-8108000D02*
X10521000Y-8148000D01*
X10521000Y-8171500D02*
X10561000Y-8211500D01*
X10561000Y-8171500D02*
X10521000Y-8211500D01*
X10521000Y-8235000D02*
X10561000Y-8275000D01*
X10561000Y-8235000D02*
X10521000Y-8275000D01*
X10521000Y-8298500D02*
X10561000Y-8338500D01*
X10561000Y-8298500D02*
X10521000Y-8338500D01*
X10521000Y-8362000D02*
X10561000Y-8402000D01*
X10561000Y-8362000D02*
X10521000Y-8402000D01*
X10521000Y-8425500D02*
X10561000Y-8465500D01*
X10561000Y-8425500D02*
X10521000Y-8465500D01*
X10521000Y-9187500D02*
X10561000Y-9227500D01*
X10561000Y-9187500D02*
X10521000Y-9227500D01*
X10521000Y-9251000D02*
X10561000Y-9291000D01*
X10561000Y-9251000D02*
X10521000Y-9291000D01*
X10521000Y-9314500D02*
X10561000Y-9354500D01*
X10561000Y-9314500D02*
X10521000Y-9354500D01*
X10521000Y-9378000D02*
X10561000Y-9418000D01*
X10561000Y-9378000D02*
X10521000Y-9418000D01*
X10521000Y-9441500D02*
X10561000Y-9481500D01*
X10561000Y-9441500D02*
X10521000Y-9481500D01*
X10521000Y-9505000D02*
X10561000Y-9545000D01*
X10561000Y-9505000D02*
X10521000Y-9545000D01*
X10521000Y-9568500D02*
X10561000Y-9608500D01*
X10561000Y-9568500D02*
X10521000Y-9608500D01*
X10533700Y-7219000D02*
X10573700Y-7259000D01*
X10573700Y-7219000D02*
X10533700Y-7259000D01*
X10546400Y-11263950D02*
X10586400Y-11303950D01*
X10586400Y-11263950D02*
X10546400Y-11303950D01*
X10584500Y-8044500D02*
X10624500Y-8084500D01*
X10624500Y-8044500D02*
X10584500Y-8084500D01*
X10584500Y-8108000D02*
X10624500Y-8148000D01*
X10624500Y-8108000D02*
X10584500Y-8148000D01*
X10584500Y-8171500D02*
X10624500Y-8211500D01*
X10624500Y-8171500D02*
X10584500Y-8211500D01*
X10584500Y-8235000D02*
X10624500Y-8275000D01*
X10624500Y-8235000D02*
X10584500Y-8275000D01*
X10584500Y-8298500D02*
X10624500Y-8338500D01*
X10624500Y-8298500D02*
X10584500Y-8338500D01*
X10584500Y-8362000D02*
X10624500Y-8402000D01*
X10624500Y-8362000D02*
X10584500Y-8402000D01*
X10584500Y-8425500D02*
X10624500Y-8465500D01*
X10624500Y-8425500D02*
X10584500Y-8465500D01*
X10584500Y-9187500D02*
X10624500Y-9227500D01*
X10624500Y-9187500D02*
X10584500Y-9227500D01*
X10584500Y-9251000D02*
X10624500Y-9291000D01*
X10624500Y-9251000D02*
X10584500Y-9291000D01*
X10584500Y-9314500D02*
X10624500Y-9354500D01*
X10624500Y-9314500D02*
X10584500Y-9354500D01*
X10584500Y-9378000D02*
X10624500Y-9418000D01*
X10624500Y-9378000D02*
X10584500Y-9418000D01*
X10584500Y-9441500D02*
X10624500Y-9481500D01*
X10624500Y-9441500D02*
X10584500Y-9481500D01*
X10584500Y-9505000D02*
X10624500Y-9545000D01*
X10624500Y-9505000D02*
X10584500Y-9545000D01*
X10584500Y-9568500D02*
X10624500Y-9608500D01*
X10624500Y-9568500D02*
X10584500Y-9608500D01*
X10648000Y-8044500D02*
X10688000Y-8084500D01*
X10688000Y-8044500D02*
X10648000Y-8084500D01*
X10648000Y-8108000D02*
X10688000Y-8148000D01*
X10688000Y-8108000D02*
X10648000Y-8148000D01*
X10648000Y-8171500D02*
X10688000Y-8211500D01*
X10688000Y-8171500D02*
X10648000Y-8211500D01*
X10648000Y-8235000D02*
X10688000Y-8275000D01*
X10688000Y-8235000D02*
X10648000Y-8275000D01*
X10648000Y-8298500D02*
X10688000Y-8338500D01*
X10688000Y-8298500D02*
X10648000Y-8338500D01*
X10648000Y-8362000D02*
X10688000Y-8402000D01*
X10688000Y-8362000D02*
X10648000Y-8402000D01*
X10648000Y-8425500D02*
X10688000Y-8465500D01*
X10688000Y-8425500D02*
X10648000Y-8465500D01*
X10648000Y-9187500D02*
X10688000Y-9227500D01*
X10688000Y-9187500D02*
X10648000Y-9227500D01*
X10648000Y-9251000D02*
X10688000Y-9291000D01*
X10688000Y-9251000D02*
X10648000Y-9291000D01*
X10648000Y-9314500D02*
X10688000Y-9354500D01*
X10688000Y-9314500D02*
X10648000Y-9354500D01*
X10648000Y-9378000D02*
X10688000Y-9418000D01*
X10688000Y-9378000D02*
X10648000Y-9418000D01*
X10648000Y-9441500D02*
X10688000Y-9481500D01*
X10688000Y-9441500D02*
X10648000Y-9481500D01*
X10648000Y-9505000D02*
X10688000Y-9545000D01*
X10688000Y-9505000D02*
X10648000Y-9545000D01*
X10648000Y-9568500D02*
X10688000Y-9608500D01*
X10688000Y-9568500D02*
X10648000Y-9608500D01*
X10679750Y-11130600D02*
X10719750Y-11170600D01*
X10719750Y-11130600D02*
X10679750Y-11170600D01*
X10711500Y-8044500D02*
X10751500Y-8084500D01*
X10751500Y-8044500D02*
X10711500Y-8084500D01*
X10711500Y-8108000D02*
X10751500Y-8148000D01*
X10751500Y-8108000D02*
X10711500Y-8148000D01*
X10711500Y-8171500D02*
X10751500Y-8211500D01*
X10751500Y-8171500D02*
X10711500Y-8211500D01*
X10711500Y-8235000D02*
X10751500Y-8275000D01*
X10751500Y-8235000D02*
X10711500Y-8275000D01*
X10711500Y-8298500D02*
X10751500Y-8338500D01*
X10751500Y-8298500D02*
X10711500Y-8338500D01*
X10711500Y-8362000D02*
X10751500Y-8402000D01*
X10751500Y-8362000D02*
X10711500Y-8402000D01*
X10711500Y-8425500D02*
X10751500Y-8465500D01*
X10751500Y-8425500D02*
X10711500Y-8465500D01*
X10711500Y-9187500D02*
X10751500Y-9227500D01*
X10751500Y-9187500D02*
X10711500Y-9227500D01*
X10711500Y-9251000D02*
X10751500Y-9291000D01*
X10751500Y-9251000D02*
X10711500Y-9291000D01*
X10711500Y-9314500D02*
X10751500Y-9354500D01*
X10751500Y-9314500D02*
X10711500Y-9354500D01*
X10711500Y-9378000D02*
X10751500Y-9418000D01*
X10751500Y-9378000D02*
X10711500Y-9418000D01*
X10711500Y-9441500D02*
X10751500Y-9481500D01*
X10751500Y-9441500D02*
X10711500Y-9481500D01*
X10711500Y-9505000D02*
X10751500Y-9545000D01*
X10751500Y-9505000D02*
X10711500Y-9545000D01*
X10711500Y-9568500D02*
X10751500Y-9608500D01*
X10751500Y-9568500D02*
X10711500Y-9608500D01*
X10775000Y-6698300D02*
X10815000Y-6738300D01*
X10815000Y-6698300D02*
X10775000Y-6738300D01*
X10775000Y-7744018D02*
X10815000Y-7784018D01*
X10815000Y-7744018D02*
X10775000Y-7784018D01*
X10775000Y-8044500D02*
X10815000Y-8084500D01*
X10815000Y-8044500D02*
X10775000Y-8084500D01*
X10775000Y-8108000D02*
X10815000Y-8148000D01*
X10815000Y-8108000D02*
X10775000Y-8148000D01*
X10775000Y-8171500D02*
X10815000Y-8211500D01*
X10815000Y-8171500D02*
X10775000Y-8211500D01*
X10775000Y-8235000D02*
X10815000Y-8275000D01*
X10815000Y-8235000D02*
X10775000Y-8275000D01*
X10775000Y-8298500D02*
X10815000Y-8338500D01*
X10815000Y-8298500D02*
X10775000Y-8338500D01*
X10775000Y-8362000D02*
X10815000Y-8402000D01*
X10815000Y-8362000D02*
X10775000Y-8402000D01*
X10775000Y-8425500D02*
X10815000Y-8465500D01*
X10815000Y-8425500D02*
X10775000Y-8465500D01*
X10775000Y-9187500D02*
X10815000Y-9227500D01*
X10815000Y-9187500D02*
X10775000Y-9227500D01*
X10775000Y-9251000D02*
X10815000Y-9291000D01*
X10815000Y-9251000D02*
X10775000Y-9291000D01*
X10775000Y-9314500D02*
X10815000Y-9354500D01*
X10815000Y-9314500D02*
X10775000Y-9354500D01*
X10775000Y-9378000D02*
X10815000Y-9418000D01*
X10815000Y-9378000D02*
X10775000Y-9418000D01*
X10775000Y-9441500D02*
X10815000Y-9481500D01*
X10815000Y-9441500D02*
X10775000Y-9481500D01*
X10775000Y-9505000D02*
X10815000Y-9545000D01*
X10815000Y-9505000D02*
X10775000Y-9545000D01*
X10775000Y-9568500D02*
X10815000Y-9608500D01*
X10815000Y-9568500D02*
X10775000Y-9608500D01*
X10838500Y-8044500D02*
X10878500Y-8084500D01*
X10878500Y-8044500D02*
X10838500Y-8084500D01*
X10838500Y-8108000D02*
X10878500Y-8148000D01*
X10878500Y-8108000D02*
X10838500Y-8148000D01*
X10838500Y-8171500D02*
X10878500Y-8211500D01*
X10878500Y-8171500D02*
X10838500Y-8211500D01*
X10838500Y-8235000D02*
X10878500Y-8275000D01*
X10878500Y-8235000D02*
X10838500Y-8275000D01*
X10838500Y-8298500D02*
X10878500Y-8338500D01*
X10878500Y-8298500D02*
X10838500Y-8338500D01*
X10838500Y-8362000D02*
X10878500Y-8402000D01*
X10878500Y-8362000D02*
X10838500Y-8402000D01*
X10838500Y-8425500D02*
X10878500Y-8465500D01*
X10878500Y-8425500D02*
X10838500Y-8465500D01*
X10838500Y-9187500D02*
X10878500Y-9227500D01*
X10878500Y-9187500D02*
X10838500Y-9227500D01*
X10838500Y-9251000D02*
X10878500Y-9291000D01*
X10878500Y-9251000D02*
X10838500Y-9291000D01*
X10838500Y-9314500D02*
X10878500Y-9354500D01*
X10878500Y-9314500D02*
X10838500Y-9354500D01*
X10838500Y-9378000D02*
X10878500Y-9418000D01*
X10878500Y-9378000D02*
X10838500Y-9418000D01*
X10838500Y-9441500D02*
X10878500Y-9481500D01*
X10878500Y-9441500D02*
X10838500Y-9481500D01*
X10838500Y-9505000D02*
X10878500Y-9545000D01*
X10878500Y-9505000D02*
X10838500Y-9545000D01*
X10838500Y-9568500D02*
X10878500Y-9608500D01*
X10878500Y-9568500D02*
X10838500Y-9608500D01*
X10902000Y-10660700D02*
X10942000Y-10700700D01*
X10942000Y-10660700D02*
X10902000Y-10700700D01*
X10908350Y-9752650D02*
X10948350Y-9792650D01*
X10948350Y-9752650D02*
X10908350Y-9792650D01*
X11009950Y-7371400D02*
X11049950Y-7411400D01*
X11049950Y-7371400D02*
X11009950Y-7411400D01*
X11010204Y-7068886D02*
X11050204Y-7108886D01*
X11050204Y-7068886D02*
X11010204Y-7108886D01*
X11016300Y-7219000D02*
X11056300Y-7259000D01*
X11056300Y-7219000D02*
X11016300Y-7259000D01*
X11124250Y-11308400D02*
X11164250Y-11348400D01*
X11164250Y-11308400D02*
X11124250Y-11348400D01*
X11175050Y-9752650D02*
X11215050Y-9792650D01*
X11215050Y-9752650D02*
X11175050Y-9792650D01*
X11187750Y-9505000D02*
X11227750Y-9545000D01*
X11227750Y-9505000D02*
X11187750Y-9545000D01*
X11295700Y-10559100D02*
X11335700Y-10599100D01*
X11335700Y-10559100D02*
X11295700Y-10599100D01*
X12476800Y-9936800D02*
X12516800Y-9976800D01*
X12516800Y-9936800D02*
X12476800Y-9976800D01*
X12553000Y-9733600D02*
X12593000Y-9773600D01*
X12593000Y-9733600D02*
X12553000Y-9773600D01*
X12629200Y-9828850D02*
X12669200Y-9868850D01*
X12669200Y-9828850D02*
X12629200Y-9868850D01*
X12641900Y-7955600D02*
X12681900Y-7995600D01*
X12681900Y-7955600D02*
X12641900Y-7995600D01*
X12711750Y-9866950D02*
X12751750Y-9906950D01*
X12751750Y-9866950D02*
X12711750Y-9906950D01*
X13587796Y-7219000D02*
X13627796Y-7259000D01*
X13627796Y-7219000D02*
X13587796Y-7259000D01*
X13632500Y-8044500D02*
X13672500Y-8084500D01*
X13672500Y-8044500D02*
X13632500Y-8084500D01*
X13632500Y-8108000D02*
X13672500Y-8148000D01*
X13672500Y-8108000D02*
X13632500Y-8148000D01*
X13632500Y-8171500D02*
X13672500Y-8211500D01*
X13672500Y-8171500D02*
X13632500Y-8211500D01*
X13632500Y-8235000D02*
X13672500Y-8275000D01*
X13672500Y-8235000D02*
X13632500Y-8275000D01*
X13632500Y-8298500D02*
X13672500Y-8338500D01*
X13672500Y-8298500D02*
X13632500Y-8338500D01*
X13632500Y-8362000D02*
X13672500Y-8402000D01*
X13672500Y-8362000D02*
X13632500Y-8402000D01*
X13632500Y-8425500D02*
X13672500Y-8465500D01*
X13672500Y-8425500D02*
X13632500Y-8465500D01*
X13632500Y-9187500D02*
X13672500Y-9227500D01*
X13672500Y-9187500D02*
X13632500Y-9227500D01*
X13632500Y-9251000D02*
X13672500Y-9291000D01*
X13672500Y-9251000D02*
X13632500Y-9291000D01*
X13632500Y-9314500D02*
X13672500Y-9354500D01*
X13672500Y-9314500D02*
X13632500Y-9354500D01*
X13632500Y-9378000D02*
X13672500Y-9418000D01*
X13672500Y-9378000D02*
X13632500Y-9418000D01*
X13632500Y-9441500D02*
X13672500Y-9481500D01*
X13672500Y-9441500D02*
X13632500Y-9481500D01*
X13632500Y-9505000D02*
X13672500Y-9545000D01*
X13672500Y-9505000D02*
X13632500Y-9545000D01*
X13632500Y-9568500D02*
X13672500Y-9608500D01*
X13672500Y-9568500D02*
X13632500Y-9608500D01*
X13696000Y-8044500D02*
X13736000Y-8084500D01*
X13736000Y-8044500D02*
X13696000Y-8084500D01*
X13696000Y-8108000D02*
X13736000Y-8148000D01*
X13736000Y-8108000D02*
X13696000Y-8148000D01*
X13696000Y-8171500D02*
X13736000Y-8211500D01*
X13736000Y-8171500D02*
X13696000Y-8211500D01*
X13696000Y-8235000D02*
X13736000Y-8275000D01*
X13736000Y-8235000D02*
X13696000Y-8275000D01*
X13696000Y-8298500D02*
X13736000Y-8338500D01*
X13736000Y-8298500D02*
X13696000Y-8338500D01*
X13696000Y-8362000D02*
X13736000Y-8402000D01*
X13736000Y-8362000D02*
X13696000Y-8402000D01*
X13696000Y-8425500D02*
X13736000Y-8465500D01*
X13736000Y-8425500D02*
X13696000Y-8465500D01*
X13696000Y-9187500D02*
X13736000Y-9227500D01*
X13736000Y-9187500D02*
X13696000Y-9227500D01*
X13696000Y-9251000D02*
X13736000Y-9291000D01*
X13736000Y-9251000D02*
X13696000Y-9291000D01*
X13696000Y-9314500D02*
X13736000Y-9354500D01*
X13736000Y-9314500D02*
X13696000Y-9354500D01*
X13696000Y-9378000D02*
X13736000Y-9418000D01*
X13736000Y-9378000D02*
X13696000Y-9418000D01*
X13696000Y-9441500D02*
X13736000Y-9481500D01*
X13736000Y-9441500D02*
X13696000Y-9481500D01*
X13696000Y-9505000D02*
X13736000Y-9545000D01*
X13736000Y-9505000D02*
X13696000Y-9545000D01*
X13696000Y-9568500D02*
X13736000Y-9608500D01*
X13736000Y-9568500D02*
X13696000Y-9608500D01*
X13759500Y-8044500D02*
X13799500Y-8084500D01*
X13799500Y-8044500D02*
X13759500Y-8084500D01*
X13759500Y-8108000D02*
X13799500Y-8148000D01*
X13799500Y-8108000D02*
X13759500Y-8148000D01*
X13759500Y-8171500D02*
X13799500Y-8211500D01*
X13799500Y-8171500D02*
X13759500Y-8211500D01*
X13759500Y-8235000D02*
X13799500Y-8275000D01*
X13799500Y-8235000D02*
X13759500Y-8275000D01*
X13759500Y-8298500D02*
X13799500Y-8338500D01*
X13799500Y-8298500D02*
X13759500Y-8338500D01*
X13759500Y-8362000D02*
X13799500Y-8402000D01*
X13799500Y-8362000D02*
X13759500Y-8402000D01*
X13759500Y-8425500D02*
X13799500Y-8465500D01*
X13799500Y-8425500D02*
X13759500Y-8465500D01*
X13759500Y-9187500D02*
X13799500Y-9227500D01*
X13799500Y-9187500D02*
X13759500Y-9227500D01*
X13759500Y-9251000D02*
X13799500Y-9291000D01*
X13799500Y-9251000D02*
X13759500Y-9291000D01*
X13759500Y-9314500D02*
X13799500Y-9354500D01*
X13799500Y-9314500D02*
X13759500Y-9354500D01*
X13759500Y-9378000D02*
X13799500Y-9418000D01*
X13799500Y-9378000D02*
X13759500Y-9418000D01*
X13759500Y-9441500D02*
X13799500Y-9481500D01*
X13799500Y-9441500D02*
X13759500Y-9481500D01*
X13759500Y-9505000D02*
X13799500Y-9545000D01*
X13799500Y-9505000D02*
X13759500Y-9545000D01*
X13759500Y-9568500D02*
X13799500Y-9608500D01*
X13799500Y-9568500D02*
X13759500Y-9608500D01*
X13797600Y-6698300D02*
X13837600Y-6738300D01*
X13837600Y-6698300D02*
X13797600Y-6738300D01*
X13823000Y-7744018D02*
X13863000Y-7784018D01*
X13863000Y-7744018D02*
X13823000Y-7784018D01*
X13823000Y-8044500D02*
X13863000Y-8084500D01*
X13863000Y-8044500D02*
X13823000Y-8084500D01*
X13823000Y-8108000D02*
X13863000Y-8148000D01*
X13863000Y-8108000D02*
X13823000Y-8148000D01*
X13823000Y-8171500D02*
X13863000Y-8211500D01*
X13863000Y-8171500D02*
X13823000Y-8211500D01*
X13823000Y-8235000D02*
X13863000Y-8275000D01*
X13863000Y-8235000D02*
X13823000Y-8275000D01*
X13823000Y-8298500D02*
X13863000Y-8338500D01*
X13863000Y-8298500D02*
X13823000Y-8338500D01*
X13823000Y-8362000D02*
X13863000Y-8402000D01*
X13863000Y-8362000D02*
X13823000Y-8402000D01*
X13823000Y-8425500D02*
X13863000Y-8465500D01*
X13863000Y-8425500D02*
X13823000Y-8465500D01*
X13823000Y-9187500D02*
X13863000Y-9227500D01*
X13863000Y-9187500D02*
X13823000Y-9227500D01*
X13823000Y-9251000D02*
X13863000Y-9291000D01*
X13863000Y-9251000D02*
X13823000Y-9291000D01*
X13823000Y-9314500D02*
X13863000Y-9354500D01*
X13863000Y-9314500D02*
X13823000Y-9354500D01*
X13823000Y-9378000D02*
X13863000Y-9418000D01*
X13863000Y-9378000D02*
X13823000Y-9418000D01*
X13823000Y-9441500D02*
X13863000Y-9481500D01*
X13863000Y-9441500D02*
X13823000Y-9481500D01*
X13823000Y-9505000D02*
X13863000Y-9545000D01*
X13863000Y-9505000D02*
X13823000Y-9545000D01*
X13823000Y-9568500D02*
X13863000Y-9608500D01*
X13863000Y-9568500D02*
X13823000Y-9608500D01*
X13886500Y-8044500D02*
X13926500Y-8084500D01*
X13926500Y-8044500D02*
X13886500Y-8084500D01*
X13886500Y-8108000D02*
X13926500Y-8148000D01*
X13926500Y-8108000D02*
X13886500Y-8148000D01*
X13886500Y-8171500D02*
X13926500Y-8211500D01*
X13926500Y-8171500D02*
X13886500Y-8211500D01*
X13886500Y-8235000D02*
X13926500Y-8275000D01*
X13926500Y-8235000D02*
X13886500Y-8275000D01*
X13886500Y-8298500D02*
X13926500Y-8338500D01*
X13926500Y-8298500D02*
X13886500Y-8338500D01*
X13886500Y-8362000D02*
X13926500Y-8402000D01*
X13926500Y-8362000D02*
X13886500Y-8402000D01*
X13886500Y-8425500D02*
X13926500Y-8465500D01*
X13926500Y-8425500D02*
X13886500Y-8465500D01*
X13886500Y-9187500D02*
X13926500Y-9227500D01*
X13926500Y-9187500D02*
X13886500Y-9227500D01*
X13886500Y-9251000D02*
X13926500Y-9291000D01*
X13926500Y-9251000D02*
X13886500Y-9291000D01*
X13886500Y-9314500D02*
X13926500Y-9354500D01*
X13926500Y-9314500D02*
X13886500Y-9354500D01*
X13886500Y-9378000D02*
X13926500Y-9418000D01*
X13926500Y-9378000D02*
X13886500Y-9418000D01*
X13886500Y-9441500D02*
X13926500Y-9481500D01*
X13926500Y-9441500D02*
X13886500Y-9481500D01*
X13886500Y-9505000D02*
X13926500Y-9545000D01*
X13926500Y-9505000D02*
X13886500Y-9545000D01*
X13886500Y-9568500D02*
X13926500Y-9608500D01*
X13926500Y-9568500D02*
X13886500Y-9608500D01*
X13950000Y-8044500D02*
X13990000Y-8084500D01*
X13990000Y-8044500D02*
X13950000Y-8084500D01*
X13950000Y-8108000D02*
X13990000Y-8148000D01*
X13990000Y-8108000D02*
X13950000Y-8148000D01*
X13950000Y-8171500D02*
X13990000Y-8211500D01*
X13990000Y-8171500D02*
X13950000Y-8211500D01*
X13950000Y-8235000D02*
X13990000Y-8275000D01*
X13990000Y-8235000D02*
X13950000Y-8275000D01*
X13950000Y-8298500D02*
X13990000Y-8338500D01*
X13990000Y-8298500D02*
X13950000Y-8338500D01*
X13950000Y-8362000D02*
X13990000Y-8402000D01*
X13990000Y-8362000D02*
X13950000Y-8402000D01*
X13950000Y-8425500D02*
X13990000Y-8465500D01*
X13990000Y-8425500D02*
X13950000Y-8465500D01*
X13950000Y-9187500D02*
X13990000Y-9227500D01*
X13990000Y-9187500D02*
X13950000Y-9227500D01*
X13950000Y-9251000D02*
X13990000Y-9291000D01*
X13990000Y-9251000D02*
X13950000Y-9291000D01*
X13950000Y-9314500D02*
X13990000Y-9354500D01*
X13990000Y-9314500D02*
X13950000Y-9354500D01*
X13950000Y-9378000D02*
X13990000Y-9418000D01*
X13990000Y-9378000D02*
X13950000Y-9418000D01*
X13950000Y-9441500D02*
X13990000Y-9481500D01*
X13990000Y-9441500D02*
X13950000Y-9481500D01*
X13950000Y-9505000D02*
X13990000Y-9545000D01*
X13990000Y-9505000D02*
X13950000Y-9545000D01*
X13950000Y-9568500D02*
X13990000Y-9608500D01*
X13990000Y-9568500D02*
X13950000Y-9608500D01*
X14013500Y-8044500D02*
X14053500Y-8084500D01*
X14053500Y-8044500D02*
X14013500Y-8084500D01*
X14013500Y-8108000D02*
X14053500Y-8148000D01*
X14053500Y-8108000D02*
X14013500Y-8148000D01*
X14013500Y-8171500D02*
X14053500Y-8211500D01*
X14053500Y-8171500D02*
X14013500Y-8211500D01*
X14013500Y-8235000D02*
X14053500Y-8275000D01*
X14053500Y-8235000D02*
X14013500Y-8275000D01*
X14013500Y-8298500D02*
X14053500Y-8338500D01*
X14053500Y-8298500D02*
X14013500Y-8338500D01*
X14013500Y-8362000D02*
X14053500Y-8402000D01*
X14053500Y-8362000D02*
X14013500Y-8402000D01*
X14013500Y-8425500D02*
X14053500Y-8465500D01*
X14053500Y-8425500D02*
X14013500Y-8465500D01*
X14013500Y-9187500D02*
X14053500Y-9227500D01*
X14053500Y-9187500D02*
X14013500Y-9227500D01*
X14013500Y-9251000D02*
X14053500Y-9291000D01*
X14053500Y-9251000D02*
X14013500Y-9291000D01*
X14013500Y-9314500D02*
X14053500Y-9354500D01*
X14053500Y-9314500D02*
X14013500Y-9354500D01*
X14013500Y-9378000D02*
X14053500Y-9418000D01*
X14053500Y-9378000D02*
X14013500Y-9418000D01*
X14013500Y-9441500D02*
X14053500Y-9481500D01*
X14053500Y-9441500D02*
X14013500Y-9481500D01*
X14013500Y-9505000D02*
X14053500Y-9545000D01*
X14053500Y-9505000D02*
X14013500Y-9545000D01*
X14013500Y-9568500D02*
X14053500Y-9608500D01*
X14053500Y-9568500D02*
X14013500Y-9608500D01*
X14051600Y-7371400D02*
X14091600Y-7411400D01*
X14091600Y-7371400D02*
X14051600Y-7411400D01*
X14058204Y-7068886D02*
X14098204Y-7108886D01*
X14098204Y-7068886D02*
X14058204Y-7108886D01*
X14064300Y-7219000D02*
X14104300Y-7259000D01*
X14104300Y-7219000D02*
X14064300Y-7259000D01*
X14223050Y-11302050D02*
X14263050Y-11342050D01*
X14263050Y-11302050D02*
X14223050Y-11342050D01*
X15105700Y-7219000D02*
X15145700Y-7259000D01*
X15145700Y-7219000D02*
X15105700Y-7259000D01*
X15156500Y-8679500D02*
X15196500Y-8719500D01*
X15196500Y-8679500D02*
X15156500Y-8719500D01*
X15156500Y-8743000D02*
X15196500Y-8783000D01*
X15196500Y-8743000D02*
X15156500Y-8783000D01*
X15156500Y-8806500D02*
X15196500Y-8846500D01*
X15196500Y-8806500D02*
X15156500Y-8846500D01*
X15156500Y-8870000D02*
X15196500Y-8910000D01*
X15196500Y-8870000D02*
X15156500Y-8910000D01*
X15156500Y-8933500D02*
X15196500Y-8973500D01*
X15196500Y-8933500D02*
X15156500Y-8973500D01*
X15156500Y-8997000D02*
X15196500Y-9037000D01*
X15196500Y-8997000D02*
X15156500Y-9037000D01*
X15156500Y-9060500D02*
X15196500Y-9100500D01*
X15196500Y-9060500D02*
X15156500Y-9100500D01*
X15220000Y-8679500D02*
X15260000Y-8719500D01*
X15260000Y-8679500D02*
X15220000Y-8719500D01*
X15220000Y-8743000D02*
X15260000Y-8783000D01*
X15260000Y-8743000D02*
X15220000Y-8783000D01*
X15220000Y-8806500D02*
X15260000Y-8846500D01*
X15260000Y-8806500D02*
X15220000Y-8846500D01*
X15220000Y-8870000D02*
X15260000Y-8910000D01*
X15260000Y-8870000D02*
X15220000Y-8910000D01*
X15220000Y-8933500D02*
X15260000Y-8973500D01*
X15260000Y-8933500D02*
X15220000Y-8973500D01*
X15220000Y-8997000D02*
X15260000Y-9037000D01*
X15260000Y-8997000D02*
X15220000Y-9037000D01*
X15220000Y-9060500D02*
X15260000Y-9100500D01*
X15260000Y-9060500D02*
X15220000Y-9100500D01*
X15283500Y-8679500D02*
X15323500Y-8719500D01*
X15323500Y-8679500D02*
X15283500Y-8719500D01*
X15283500Y-8743000D02*
X15323500Y-8783000D01*
X15323500Y-8743000D02*
X15283500Y-8783000D01*
X15283500Y-8806500D02*
X15323500Y-8846500D01*
X15323500Y-8806500D02*
X15283500Y-8846500D01*
X15283500Y-8870000D02*
X15323500Y-8910000D01*
X15323500Y-8870000D02*
X15283500Y-8910000D01*
X15283500Y-8933500D02*
X15323500Y-8973500D01*
X15323500Y-8933500D02*
X15283500Y-8973500D01*
X15283500Y-8997000D02*
X15323500Y-9037000D01*
X15323500Y-8997000D02*
X15283500Y-9037000D01*
X15283500Y-9060500D02*
X15323500Y-9100500D01*
X15323500Y-9060500D02*
X15283500Y-9100500D01*
X15334300Y-6685600D02*
X15374300Y-6725600D01*
X15374300Y-6685600D02*
X15334300Y-6725600D01*
X15347000Y-8679500D02*
X15387000Y-8719500D01*
X15387000Y-8679500D02*
X15347000Y-8719500D01*
X15347000Y-8743000D02*
X15387000Y-8783000D01*
X15387000Y-8743000D02*
X15347000Y-8783000D01*
X15347000Y-8806500D02*
X15387000Y-8846500D01*
X15387000Y-8806500D02*
X15347000Y-8846500D01*
X15347000Y-8870000D02*
X15387000Y-8910000D01*
X15387000Y-8870000D02*
X15347000Y-8910000D01*
X15347000Y-8933500D02*
X15387000Y-8973500D01*
X15387000Y-8933500D02*
X15347000Y-8973500D01*
X15347000Y-8997000D02*
X15387000Y-9037000D01*
X15387000Y-8997000D02*
X15347000Y-9037000D01*
X15347000Y-9060500D02*
X15387000Y-9100500D01*
X15387000Y-9060500D02*
X15347000Y-9100500D01*
X15410500Y-8679500D02*
X15450500Y-8719500D01*
X15450500Y-8679500D02*
X15410500Y-8719500D01*
X15410500Y-8743000D02*
X15450500Y-8783000D01*
X15450500Y-8743000D02*
X15410500Y-8783000D01*
X15410500Y-8806500D02*
X15450500Y-8846500D01*
X15450500Y-8806500D02*
X15410500Y-8846500D01*
X15410500Y-8870000D02*
X15450500Y-8910000D01*
X15450500Y-8870000D02*
X15410500Y-8910000D01*
X15410500Y-8933500D02*
X15450500Y-8973500D01*
X15450500Y-8933500D02*
X15410500Y-8973500D01*
X15410500Y-8997000D02*
X15450500Y-9037000D01*
X15450500Y-8997000D02*
X15410500Y-9037000D01*
X15410500Y-9060500D02*
X15450500Y-9100500D01*
X15450500Y-9060500D02*
X15410500Y-9100500D01*
X15459268Y-8295198D02*
X15499268Y-8335198D01*
X15499268Y-8295198D02*
X15459268Y-8335198D01*
X15474000Y-8679500D02*
X15514000Y-8719500D01*
X15514000Y-8679500D02*
X15474000Y-8719500D01*
X15474000Y-8743000D02*
X15514000Y-8783000D01*
X15514000Y-8743000D02*
X15474000Y-8783000D01*
X15474000Y-8806500D02*
X15514000Y-8846500D01*
X15514000Y-8806500D02*
X15474000Y-8846500D01*
X15474000Y-8870000D02*
X15514000Y-8910000D01*
X15514000Y-8870000D02*
X15474000Y-8910000D01*
X15474000Y-8933500D02*
X15514000Y-8973500D01*
X15514000Y-8933500D02*
X15474000Y-8973500D01*
X15474000Y-8997000D02*
X15514000Y-9037000D01*
X15514000Y-8997000D02*
X15474000Y-9037000D01*
X15474000Y-9060500D02*
X15514000Y-9100500D01*
X15514000Y-9060500D02*
X15474000Y-9100500D01*
X15537500Y-8679500D02*
X15577500Y-8719500D01*
X15577500Y-8679500D02*
X15537500Y-8719500D01*
X15537500Y-8743000D02*
X15577500Y-8783000D01*
X15577500Y-8743000D02*
X15537500Y-8783000D01*
X15537500Y-8806500D02*
X15577500Y-8846500D01*
X15577500Y-8806500D02*
X15537500Y-8846500D01*
X15537500Y-8870000D02*
X15577500Y-8910000D01*
X15577500Y-8870000D02*
X15537500Y-8910000D01*
X15537500Y-8933500D02*
X15577500Y-8973500D01*
X15577500Y-8933500D02*
X15537500Y-8973500D01*
X15537500Y-8997000D02*
X15577500Y-9037000D01*
X15577500Y-8997000D02*
X15537500Y-9037000D01*
X15537500Y-9060500D02*
X15577500Y-9100500D01*
X15577500Y-9060500D02*
X15537500Y-9100500D01*
X15575600Y-7219000D02*
X15615600Y-7259000D01*
X15615600Y-7219000D02*
X15575600Y-7259000D01*
X15581950Y-7371400D02*
X15621950Y-7411400D01*
X15621950Y-7371400D02*
X15581950Y-7411400D01*
X15582204Y-7074000D02*
X15622204Y-7114000D01*
X15622204Y-7074000D02*
X15582204Y-7114000D01*
X15626400Y-11270300D02*
X15666400Y-11310300D01*
X15666400Y-11270300D02*
X15626400Y-11310300D01*
X15728000Y-8108000D02*
X15768000Y-8148000D01*
X15768000Y-8108000D02*
X15728000Y-8148000D01*
X15728000Y-8235000D02*
X15768000Y-8275000D01*
X15768000Y-8235000D02*
X15728000Y-8275000D01*
X15855000Y-8108000D02*
X15895000Y-8148000D01*
X15895000Y-8108000D02*
X15855000Y-8148000D01*
X15855000Y-8235000D02*
X15895000Y-8275000D01*
X15895000Y-8235000D02*
X15855000Y-8275000D01*
X16375700Y-7219000D02*
X16415700Y-7259000D01*
X16415700Y-7219000D02*
X16375700Y-7259000D01*
X16553500Y-8679500D02*
X16593500Y-8719500D01*
X16593500Y-8679500D02*
X16553500Y-8719500D01*
X16553500Y-8743000D02*
X16593500Y-8783000D01*
X16593500Y-8743000D02*
X16553500Y-8783000D01*
X16553500Y-8806500D02*
X16593500Y-8846500D01*
X16593500Y-8806500D02*
X16553500Y-8846500D01*
X16553500Y-8870000D02*
X16593500Y-8910000D01*
X16593500Y-8870000D02*
X16553500Y-8910000D01*
X16553500Y-8933500D02*
X16593500Y-8973500D01*
X16593500Y-8933500D02*
X16553500Y-8973500D01*
X16553500Y-8997000D02*
X16593500Y-9037000D01*
X16593500Y-8997000D02*
X16553500Y-9037000D01*
X16553500Y-9060500D02*
X16593500Y-9100500D01*
X16593500Y-9060500D02*
X16553500Y-9100500D01*
X16617000Y-8679500D02*
X16657000Y-8719500D01*
X16657000Y-8679500D02*
X16617000Y-8719500D01*
X16617000Y-8743000D02*
X16657000Y-8783000D01*
X16657000Y-8743000D02*
X16617000Y-8783000D01*
X16617000Y-8806500D02*
X16657000Y-8846500D01*
X16657000Y-8806500D02*
X16617000Y-8846500D01*
X16617000Y-8870000D02*
X16657000Y-8910000D01*
X16657000Y-8870000D02*
X16617000Y-8910000D01*
X16617000Y-8933500D02*
X16657000Y-8973500D01*
X16657000Y-8933500D02*
X16617000Y-8973500D01*
X16617000Y-8997000D02*
X16657000Y-9037000D01*
X16657000Y-8997000D02*
X16617000Y-9037000D01*
X16617000Y-9060500D02*
X16657000Y-9100500D01*
X16657000Y-9060500D02*
X16617000Y-9100500D01*
X16680500Y-8679500D02*
X16720500Y-8719500D01*
X16720500Y-8679500D02*
X16680500Y-8719500D01*
X16680500Y-8743000D02*
X16720500Y-8783000D01*
X16720500Y-8743000D02*
X16680500Y-8783000D01*
X16680500Y-8806500D02*
X16720500Y-8846500D01*
X16720500Y-8806500D02*
X16680500Y-8846500D01*
X16680500Y-8870000D02*
X16720500Y-8910000D01*
X16720500Y-8870000D02*
X16680500Y-8910000D01*
X16680500Y-8933500D02*
X16720500Y-8973500D01*
X16720500Y-8933500D02*
X16680500Y-8973500D01*
X16680500Y-8997000D02*
X16720500Y-9037000D01*
X16720500Y-8997000D02*
X16680500Y-9037000D01*
X16680500Y-9060500D02*
X16720500Y-9100500D01*
X16720500Y-9060500D02*
X16680500Y-9100500D01*
X16731300Y-6685600D02*
X16771300Y-6725600D01*
X16771300Y-6685600D02*
X16731300Y-6725600D01*
X16744000Y-8679500D02*
X16784000Y-8719500D01*
X16784000Y-8679500D02*
X16744000Y-8719500D01*
X16744000Y-8743000D02*
X16784000Y-8783000D01*
X16784000Y-8743000D02*
X16744000Y-8783000D01*
X16744000Y-8806500D02*
X16784000Y-8846500D01*
X16784000Y-8806500D02*
X16744000Y-8846500D01*
X16744000Y-8870000D02*
X16784000Y-8910000D01*
X16784000Y-8870000D02*
X16744000Y-8910000D01*
X16744000Y-8933500D02*
X16784000Y-8973500D01*
X16784000Y-8933500D02*
X16744000Y-8973500D01*
X16744000Y-8997000D02*
X16784000Y-9037000D01*
X16784000Y-8997000D02*
X16744000Y-9037000D01*
X16744000Y-9060500D02*
X16784000Y-9100500D01*
X16784000Y-9060500D02*
X16744000Y-9100500D01*
X16807500Y-8679500D02*
X16847500Y-8719500D01*
X16847500Y-8679500D02*
X16807500Y-8719500D01*
X16807500Y-8743000D02*
X16847500Y-8783000D01*
X16847500Y-8743000D02*
X16807500Y-8783000D01*
X16807500Y-8806500D02*
X16847500Y-8846500D01*
X16847500Y-8806500D02*
X16807500Y-8846500D01*
X16807500Y-8870000D02*
X16847500Y-8910000D01*
X16847500Y-8870000D02*
X16807500Y-8910000D01*
X16807500Y-8933500D02*
X16847500Y-8973500D01*
X16847500Y-8933500D02*
X16807500Y-8973500D01*
X16807500Y-8997000D02*
X16847500Y-9037000D01*
X16847500Y-8997000D02*
X16807500Y-9037000D01*
X16807500Y-9060500D02*
X16847500Y-9100500D01*
X16847500Y-9060500D02*
X16807500Y-9100500D01*
X16845600Y-7219000D02*
X16885600Y-7259000D01*
X16885600Y-7219000D02*
X16845600Y-7259000D01*
X16845600Y-7365050D02*
X16885600Y-7405050D01*
X16885600Y-7365050D02*
X16845600Y-7405050D01*
X16852204Y-7068886D02*
X16892204Y-7108886D01*
X16892204Y-7068886D02*
X16852204Y-7108886D01*
X16856268Y-8295198D02*
X16896268Y-8335198D01*
X16896268Y-8295198D02*
X16856268Y-8335198D01*
X16871000Y-8679500D02*
X16911000Y-8719500D01*
X16911000Y-8679500D02*
X16871000Y-8719500D01*
X16871000Y-8743000D02*
X16911000Y-8783000D01*
X16911000Y-8743000D02*
X16871000Y-8783000D01*
X16871000Y-8806500D02*
X16911000Y-8846500D01*
X16911000Y-8806500D02*
X16871000Y-8846500D01*
X16871000Y-8870000D02*
X16911000Y-8910000D01*
X16911000Y-8870000D02*
X16871000Y-8910000D01*
X16871000Y-8933500D02*
X16911000Y-8973500D01*
X16911000Y-8933500D02*
X16871000Y-8973500D01*
X16871000Y-8997000D02*
X16911000Y-9037000D01*
X16911000Y-8997000D02*
X16871000Y-9037000D01*
X16871000Y-9060500D02*
X16911000Y-9100500D01*
X16911000Y-9060500D02*
X16871000Y-9100500D01*
X16934500Y-8679500D02*
X16974500Y-8719500D01*
X16974500Y-8679500D02*
X16934500Y-8719500D01*
X16934500Y-8743000D02*
X16974500Y-8783000D01*
X16974500Y-8743000D02*
X16934500Y-8783000D01*
X16934500Y-8806500D02*
X16974500Y-8846500D01*
X16974500Y-8806500D02*
X16934500Y-8846500D01*
X16934500Y-8870000D02*
X16974500Y-8910000D01*
X16974500Y-8870000D02*
X16934500Y-8910000D01*
X16934500Y-8933500D02*
X16974500Y-8973500D01*
X16974500Y-8933500D02*
X16934500Y-8973500D01*
X16934500Y-8997000D02*
X16974500Y-9037000D01*
X16974500Y-8997000D02*
X16934500Y-9037000D01*
X16934500Y-9060500D02*
X16974500Y-9100500D01*
X16974500Y-9060500D02*
X16934500Y-9100500D01*
X10952000Y-10287000D02*
G75*
G03X10952000Y-10287000I-30000J0D01*
G01*
X11079000Y-10287000D02*
G75*
G03X11079000Y-10287000I-30000J0D01*
G01*
X11206000Y-10287000D02*
G75*
G03X11206000Y-10287000I-30000J0D01*
G01*
X13549150Y-10299700D02*
G75*
G03X13549150Y-10299700I-30000J0D01*
G01*
X13676150Y-10299700D02*
G75*
G03X13676150Y-10299700I-30000J0D01*
G01*
X13803150Y-10299700D02*
G75*
G03X13803150Y-10299700I-30000J0D01*
G01*
X16433800Y-10272400D02*
X16433800Y-10352400D01*
X16393800Y-10312400D02*
X16473800Y-10312400D01*
X16433800Y-10522400D02*
X16433800Y-10602400D01*
X16393800Y-10562400D02*
X16473800Y-10562400D01*
X16433800Y-10911400D02*
X16433800Y-10991400D01*
X16393800Y-10951400D02*
X16473800Y-10951400D01*
X16433800Y-11161400D02*
X16433800Y-11241400D01*
X16393800Y-11201400D02*
X16473800Y-11201400D01*
X11179543Y-11096993D02*
X11179543Y-11026407D01*
X11108957Y-11026407D01*
X11108957Y-11096993D01*
X11179543Y-11096993D01*
X11433543Y-11096993D02*
X11433543Y-11026407D01*
X11362957Y-11026407D01*
X11362957Y-11096993D01*
X11433543Y-11096993D01*
X11687543Y-11096993D02*
X11687543Y-11026407D01*
X11616957Y-11026407D01*
X11616957Y-11096993D01*
X11687543Y-11096993D01*
X11941543Y-11096993D02*
X11941543Y-11026407D01*
X11870957Y-11026407D01*
X11870957Y-11096993D01*
X11941543Y-11096993D01*
X12138393Y-9534893D02*
X12138393Y-9464307D01*
X12067807Y-9464307D01*
X12067807Y-9534893D01*
X12138393Y-9534893D01*
X12195543Y-11096993D02*
X12195543Y-11026407D01*
X12124957Y-11026407D01*
X12124957Y-11096993D01*
X12195543Y-11096993D01*
X12392393Y-9534893D02*
X12392393Y-9464307D01*
X12321807Y-9464307D01*
X12321807Y-9534893D01*
X12392393Y-9534893D01*
X12449543Y-11096993D02*
X12449543Y-11026407D01*
X12378957Y-11026407D01*
X12378957Y-11096993D01*
X12449543Y-11096993D01*
X13014693Y-10779493D02*
X13014693Y-10708907D01*
X12944107Y-10708907D01*
X12944107Y-10779493D01*
X13014693Y-10779493D01*
X13014693Y-11033493D02*
X13014693Y-10962907D01*
X12944107Y-10962907D01*
X12944107Y-11033493D01*
X13014693Y-11033493D01*
X13014693Y-11287493D02*
X13014693Y-11216907D01*
X12944107Y-11216907D01*
X12944107Y-11287493D01*
X13014693Y-11287493D01*
X13713193Y-10792193D02*
X13713193Y-10721607D01*
X13642607Y-10721607D01*
X13642607Y-10792193D01*
X13713193Y-10792193D01*
X13713193Y-11046193D02*
X13713193Y-10975607D01*
X13642607Y-10975607D01*
X13642607Y-11046193D01*
X13713193Y-11046193D01*
X13713193Y-11300193D02*
X13713193Y-11229607D01*
X13642607Y-11229607D01*
X13642607Y-11300193D01*
X13713193Y-11300193D01*
X11557000Y-6781800D02*
X11607800Y-6731000D01*
X11557000Y-6680200D01*
X11506200Y-6731000D01*
X11557000Y-6781800D01*
X11557000Y-7035800D02*
X11607800Y-6985000D01*
X11557000Y-6934200D01*
X11506200Y-6985000D01*
X11557000Y-7035800D01*
X11557000Y-7289800D02*
X11607800Y-7239000D01*
X11557000Y-7188200D01*
X11506200Y-7239000D01*
X11557000Y-7289800D01*
X11557000Y-7543800D02*
X11607800Y-7493000D01*
X11557000Y-7442200D01*
X11506200Y-7493000D01*
X11557000Y-7543800D01*
X11557000Y-7797800D02*
X11607800Y-7747000D01*
X11557000Y-7696200D01*
X11506200Y-7747000D01*
X11557000Y-7797800D01*
X11557000Y-8051800D02*
X11607800Y-8001000D01*
X11557000Y-7950200D01*
X11506200Y-8001000D01*
X11557000Y-8051800D01*
X11557000Y-8305800D02*
X11607800Y-8255000D01*
X11557000Y-8204200D01*
X11506200Y-8255000D01*
X11557000Y-8305800D01*
X11557000Y-8559800D02*
X11607800Y-8509000D01*
X11557000Y-8458200D01*
X11506200Y-8509000D01*
X11557000Y-8559800D01*
X11557000Y-8813800D02*
X11607800Y-8763000D01*
X11557000Y-8712200D01*
X11506200Y-8763000D01*
X11557000Y-8813800D01*
X11557000Y-9067800D02*
X11607800Y-9017000D01*
X11557000Y-8966200D01*
X11506200Y-9017000D01*
X11557000Y-9067800D01*
X11557000Y-9321800D02*
X11607800Y-9271000D01*
X11557000Y-9220200D01*
X11506200Y-9271000D01*
X11557000Y-9321800D01*
X11557000Y-9575800D02*
X11607800Y-9525000D01*
X11557000Y-9474200D01*
X11506200Y-9525000D01*
X11557000Y-9575800D01*
X11557000Y-9829800D02*
X11607800Y-9779000D01*
X11557000Y-9728200D01*
X11506200Y-9779000D01*
X11557000Y-9829800D01*
X11557000Y-10083800D02*
X11607800Y-10033000D01*
X11557000Y-9982200D01*
X11506200Y-10033000D01*
X11557000Y-10083800D01*
X11557000Y-10337800D02*
X11607800Y-10287000D01*
X11557000Y-10236200D01*
X11506200Y-10287000D01*
X11557000Y-10337800D01*
X12166600Y-7480300D02*
X12217400Y-7429500D01*
X12166600Y-7378700D01*
X12115800Y-7429500D01*
X12166600Y-7480300D01*
X12166600Y-7734300D02*
X12217400Y-7683500D01*
X12166600Y-7632700D01*
X12115800Y-7683500D01*
X12166600Y-7734300D01*
X12166600Y-7988300D02*
X12217400Y-7937500D01*
X12166600Y-7886700D01*
X12115800Y-7937500D01*
X12166600Y-7988300D01*
X12166600Y-8242300D02*
X12217400Y-8191500D01*
X12166600Y-8140700D01*
X12115800Y-8191500D01*
X12166600Y-8242300D01*
X12166600Y-8496300D02*
X12217400Y-8445500D01*
X12166600Y-8394700D01*
X12115800Y-8445500D01*
X12166600Y-8496300D01*
X12420600Y-7480300D02*
X12471400Y-7429500D01*
X12420600Y-7378700D01*
X12369800Y-7429500D01*
X12420600Y-7480300D01*
X12420600Y-7734300D02*
X12471400Y-7683500D01*
X12420600Y-7632700D01*
X12369800Y-7683500D01*
X12420600Y-7734300D01*
X12420600Y-7988300D02*
X12471400Y-7937500D01*
X12420600Y-7886700D01*
X12369800Y-7937500D01*
X12420600Y-7988300D01*
X12420600Y-8242300D02*
X12471400Y-8191500D01*
X12420600Y-8140700D01*
X12369800Y-8191500D01*
X12420600Y-8242300D01*
X12420600Y-8496300D02*
X12471400Y-8445500D01*
X12420600Y-8394700D01*
X12369800Y-8445500D01*
X12420600Y-8496300D01*
X13081000Y-6781800D02*
X13131800Y-6731000D01*
X13081000Y-6680200D01*
X13030200Y-6731000D01*
X13081000Y-6781800D01*
X13081000Y-7035800D02*
X13131800Y-6985000D01*
X13081000Y-6934200D01*
X13030200Y-6985000D01*
X13081000Y-7035800D01*
X13081000Y-7289800D02*
X13131800Y-7239000D01*
X13081000Y-7188200D01*
X13030200Y-7239000D01*
X13081000Y-7289800D01*
X13081000Y-7543800D02*
X13131800Y-7493000D01*
X13081000Y-7442200D01*
X13030200Y-7493000D01*
X13081000Y-7543800D01*
X13081000Y-7797800D02*
X13131800Y-7747000D01*
X13081000Y-7696200D01*
X13030200Y-7747000D01*
X13081000Y-7797800D01*
X13081000Y-8051800D02*
X13131800Y-8001000D01*
X13081000Y-7950200D01*
X13030200Y-8001000D01*
X13081000Y-8051800D01*
X13081000Y-8305800D02*
X13131800Y-8255000D01*
X13081000Y-8204200D01*
X13030200Y-8255000D01*
X13081000Y-8305800D01*
X13081000Y-8559800D02*
X13131800Y-8509000D01*
X13081000Y-8458200D01*
X13030200Y-8509000D01*
X13081000Y-8559800D01*
X13081000Y-8813800D02*
X13131800Y-8763000D01*
X13081000Y-8712200D01*
X13030200Y-8763000D01*
X13081000Y-8813800D01*
X13081000Y-9067800D02*
X13131800Y-9017000D01*
X13081000Y-8966200D01*
X13030200Y-9017000D01*
X13081000Y-9067800D01*
X13081000Y-9321800D02*
X13131800Y-9271000D01*
X13081000Y-9220200D01*
X13030200Y-9271000D01*
X13081000Y-9321800D01*
X13081000Y-9575800D02*
X13131800Y-9525000D01*
X13081000Y-9474200D01*
X13030200Y-9525000D01*
X13081000Y-9575800D01*
X13081000Y-9829800D02*
X13131800Y-9779000D01*
X13081000Y-9728200D01*
X13030200Y-9779000D01*
X13081000Y-9829800D01*
X13081000Y-10083800D02*
X13131800Y-10033000D01*
X13081000Y-9982200D01*
X13030200Y-10033000D01*
X13081000Y-10083800D01*
X13081000Y-10337800D02*
X13131800Y-10287000D01*
X13081000Y-10236200D01*
X13030200Y-10287000D01*
X13081000Y-10337800D01*
X16884650Y-10509250D02*
X16998950Y-10623550D01*
X16998950Y-10509250D02*
X16884650Y-10623550D01*
X16998950Y-10566400D02*
G75*
G03X16998950Y-10566400I-57150J0D01*
G01*
X16884650Y-10763250D02*
X16998950Y-10877550D01*
X16998950Y-10763250D02*
X16884650Y-10877550D01*
X16998950Y-10820400D02*
G75*
G03X16998950Y-10820400I-57150J0D01*
G01*
X16884650Y-11017250D02*
X16998950Y-11131550D01*
X16998950Y-11017250D02*
X16884650Y-11131550D01*
X16998950Y-11074400D02*
G75*
G03X16998950Y-11074400I-57150J0D01*
G01*
X8064500Y-10629900D02*
X8191500Y-10756900D01*
X8191500Y-10629900D02*
X8064500Y-10756900D01*
X8128000Y-10629900D02*
X8128000Y-10756900D01*
X8064500Y-10693400D02*
X8191500Y-10693400D01*
X7734300Y-10299700D02*
X7886700Y-10452100D01*
X7886700Y-10299700D02*
X7734300Y-10452100D01*
X7864382Y-10429782D02*
X7864382Y-10322018D01*
X7756618Y-10322018D01*
X7756618Y-10429782D01*
X7864382Y-10429782D01*
X7734300Y-10934700D02*
X7886700Y-11087100D01*
X7886700Y-10934700D02*
X7734300Y-11087100D01*
X7864382Y-11064782D02*
X7864382Y-10957018D01*
X7756618Y-10957018D01*
X7756618Y-11064782D01*
X7864382Y-11064782D01*
X8369300Y-10299700D02*
X8521700Y-10452100D01*
X8521700Y-10299700D02*
X8369300Y-10452100D01*
X8499382Y-10429782D02*
X8499382Y-10322018D01*
X8391618Y-10322018D01*
X8391618Y-10429782D01*
X8499382Y-10429782D01*
X8369300Y-10934700D02*
X8521700Y-11087100D01*
X8521700Y-10934700D02*
X8369300Y-11087100D01*
X8499382Y-11064782D02*
X8499382Y-10957018D01*
X8391618Y-10957018D01*
X8391618Y-11064782D01*
X8499382Y-11064782D01*
X14528800Y-10947400D02*
X14681200Y-11099800D01*
X14681200Y-10947400D02*
X14528800Y-11099800D01*
X14658882Y-11077482D02*
X14658882Y-10969718D01*
X14551118Y-10969718D01*
X14551118Y-11077482D01*
X14658882Y-11077482D01*
X15036800Y-10947400D02*
X15189200Y-11099800D01*
X15189200Y-10947400D02*
X15036800Y-11099800D01*
X15166882Y-11077482D02*
X15166882Y-10969718D01*
X15059118Y-10969718D01*
X15059118Y-11077482D01*
X15166882Y-11077482D01*
D13*
X7632428Y-11900714D02*
X7632428Y-11600714D01*
X7703857Y-11600714D01*
X7746714Y-11615000D01*
X7775286Y-11643571D01*
X7789571Y-11672143D01*
X7803857Y-11729286D01*
X7803857Y-11772143D01*
X7789571Y-11829286D01*
X7775286Y-11857857D01*
X7746714Y-11886429D01*
X7703857Y-11900714D01*
X7632428Y-11900714D01*
X7932428Y-11900714D02*
X7932428Y-11700714D01*
X7932428Y-11757857D02*
X7946714Y-11729286D01*
X7961000Y-11715000D01*
X7989571Y-11700714D01*
X8018143Y-11700714D01*
X8118143Y-11900714D02*
X8118143Y-11700714D01*
X8118143Y-11600714D02*
X8103857Y-11615000D01*
X8118143Y-11629286D01*
X8132428Y-11615000D01*
X8118143Y-11600714D01*
X8118143Y-11629286D01*
X8303857Y-11900714D02*
X8275286Y-11886429D01*
X8261000Y-11857857D01*
X8261000Y-11600714D01*
X8461000Y-11900714D02*
X8432429Y-11886429D01*
X8418143Y-11857857D01*
X8418143Y-11600714D01*
X8803857Y-11900714D02*
X8803857Y-11600714D01*
X8903857Y-11815000D01*
X9003857Y-11600714D01*
X9003857Y-11900714D01*
X9275286Y-11900714D02*
X9275286Y-11743571D01*
X9261000Y-11715000D01*
X9232429Y-11700714D01*
X9175286Y-11700714D01*
X9146714Y-11715000D01*
X9275286Y-11886429D02*
X9246714Y-11900714D01*
X9175286Y-11900714D01*
X9146714Y-11886429D01*
X9132429Y-11857857D01*
X9132429Y-11829286D01*
X9146714Y-11800714D01*
X9175286Y-11786429D01*
X9246714Y-11786429D01*
X9275286Y-11772143D01*
X9418143Y-11700714D02*
X9418143Y-12000714D01*
X9418143Y-11715000D02*
X9446714Y-11700714D01*
X9503857Y-11700714D01*
X9532429Y-11715000D01*
X9546714Y-11729286D01*
X9561000Y-11757857D01*
X9561000Y-11843571D01*
X9546714Y-11872143D01*
X9532429Y-11886429D01*
X9503857Y-11900714D01*
X9446714Y-11900714D01*
X9418143Y-11886429D01*
X9689571Y-11872143D02*
X9703857Y-11886429D01*
X9689571Y-11900714D01*
X9675286Y-11886429D01*
X9689571Y-11872143D01*
X9689571Y-11900714D01*
X9689571Y-11715000D02*
X9703857Y-11729286D01*
X9689571Y-11743571D01*
X9675286Y-11729286D01*
X9689571Y-11715000D01*
X9689571Y-11743571D01*
X7321000Y-12375000D02*
X7361000Y-12415000D01*
X7361000Y-12375000D02*
X7321000Y-12415000D01*
X7689571Y-12230714D02*
X7718143Y-12230714D01*
X7746714Y-12245000D01*
X7761000Y-12259286D01*
X7775286Y-12287857D01*
X7789571Y-12345000D01*
X7789571Y-12416429D01*
X7775286Y-12473571D01*
X7761000Y-12502143D01*
X7746714Y-12516429D01*
X7718143Y-12530714D01*
X7689571Y-12530714D01*
X7661000Y-12516429D01*
X7646714Y-12502143D01*
X7632428Y-12473571D01*
X7618143Y-12416429D01*
X7618143Y-12345000D01*
X7632428Y-12287857D01*
X7646714Y-12259286D01*
X7661000Y-12245000D01*
X7689571Y-12230714D01*
X7918143Y-12502143D02*
X7932428Y-12516429D01*
X7918143Y-12530714D01*
X7903857Y-12516429D01*
X7918143Y-12502143D01*
X7918143Y-12530714D01*
X8189571Y-12330714D02*
X8189571Y-12530714D01*
X8118143Y-12216429D02*
X8046714Y-12430714D01*
X8232428Y-12430714D01*
X8403857Y-12230714D02*
X8432429Y-12230714D01*
X8461000Y-12245000D01*
X8475286Y-12259286D01*
X8489571Y-12287857D01*
X8503857Y-12345000D01*
X8503857Y-12416429D01*
X8489571Y-12473571D01*
X8475286Y-12502143D01*
X8461000Y-12516429D01*
X8432429Y-12530714D01*
X8403857Y-12530714D01*
X8375286Y-12516429D01*
X8361000Y-12502143D01*
X8346714Y-12473571D01*
X8332428Y-12416429D01*
X8332428Y-12345000D01*
X8346714Y-12287857D01*
X8361000Y-12259286D01*
X8375286Y-12245000D01*
X8403857Y-12230714D01*
X8632429Y-12530714D02*
X8632429Y-12330714D01*
X8632429Y-12359286D02*
X8646714Y-12345000D01*
X8675286Y-12330714D01*
X8718143Y-12330714D01*
X8746714Y-12345000D01*
X8761000Y-12373571D01*
X8761000Y-12530714D01*
X8761000Y-12373571D02*
X8775286Y-12345000D01*
X8803857Y-12330714D01*
X8846714Y-12330714D01*
X8875286Y-12345000D01*
X8889571Y-12373571D01*
X8889571Y-12530714D01*
X9032429Y-12530714D02*
X9032429Y-12330714D01*
X9032429Y-12359286D02*
X9046714Y-12345000D01*
X9075286Y-12330714D01*
X9118143Y-12330714D01*
X9146714Y-12345000D01*
X9161000Y-12373571D01*
X9161000Y-12530714D01*
X9161000Y-12373571D02*
X9175286Y-12345000D01*
X9203857Y-12330714D01*
X9246714Y-12330714D01*
X9275286Y-12345000D01*
X9289571Y-12373571D01*
X9289571Y-12530714D01*
X9875286Y-12216429D02*
X9618143Y-12602143D01*
X10261000Y-12230714D02*
X10289571Y-12230714D01*
X10318143Y-12245000D01*
X10332428Y-12259286D01*
X10346714Y-12287857D01*
X10361000Y-12345000D01*
X10361000Y-12416429D01*
X10346714Y-12473571D01*
X10332428Y-12502143D01*
X10318143Y-12516429D01*
X10289571Y-12530714D01*
X10261000Y-12530714D01*
X10232428Y-12516429D01*
X10218143Y-12502143D01*
X10203857Y-12473571D01*
X10189571Y-12416429D01*
X10189571Y-12345000D01*
X10203857Y-12287857D01*
X10218143Y-12259286D01*
X10232428Y-12245000D01*
X10261000Y-12230714D01*
X10489571Y-12502143D02*
X10503857Y-12516429D01*
X10489571Y-12530714D01*
X10475286Y-12516429D01*
X10489571Y-12502143D01*
X10489571Y-12530714D01*
X10689571Y-12230714D02*
X10718143Y-12230714D01*
X10746714Y-12245000D01*
X10761000Y-12259286D01*
X10775286Y-12287857D01*
X10789571Y-12345000D01*
X10789571Y-12416429D01*
X10775286Y-12473571D01*
X10761000Y-12502143D01*
X10746714Y-12516429D01*
X10718143Y-12530714D01*
X10689571Y-12530714D01*
X10661000Y-12516429D01*
X10646714Y-12502143D01*
X10632428Y-12473571D01*
X10618143Y-12416429D01*
X10618143Y-12345000D01*
X10632428Y-12287857D01*
X10646714Y-12259286D01*
X10661000Y-12245000D01*
X10689571Y-12230714D01*
X11075286Y-12530714D02*
X10903857Y-12530714D01*
X10989571Y-12530714D02*
X10989571Y-12230714D01*
X10961000Y-12273571D01*
X10932428Y-12302143D01*
X10903857Y-12316429D01*
X11332428Y-12230714D02*
X11275285Y-12230714D01*
X11246714Y-12245000D01*
X11232428Y-12259286D01*
X11203857Y-12302143D01*
X11189571Y-12359286D01*
X11189571Y-12473571D01*
X11203857Y-12502143D01*
X11218143Y-12516429D01*
X11246714Y-12530714D01*
X11303857Y-12530714D01*
X11332428Y-12516429D01*
X11346714Y-12502143D01*
X11361000Y-12473571D01*
X11361000Y-12402143D01*
X11346714Y-12373571D01*
X11332428Y-12359286D01*
X11303857Y-12345000D01*
X11246714Y-12345000D01*
X11218143Y-12359286D01*
X11203857Y-12373571D01*
X11189571Y-12402143D01*
X11475286Y-12230714D02*
X11475286Y-12287857D01*
X11589571Y-12230714D02*
X11589571Y-12287857D01*
X12032428Y-12645000D02*
X12018143Y-12630714D01*
X11989571Y-12587857D01*
X11975285Y-12559286D01*
X11961000Y-12516429D01*
X11946714Y-12445000D01*
X11946714Y-12387857D01*
X11961000Y-12316429D01*
X11975285Y-12273571D01*
X11989571Y-12245000D01*
X12018143Y-12202143D01*
X12032428Y-12187857D01*
X12275285Y-12330714D02*
X12275285Y-12530714D01*
X12203857Y-12216429D02*
X12132428Y-12430714D01*
X12318143Y-12430714D01*
X12403857Y-12230714D02*
X12603857Y-12230714D01*
X12475285Y-12530714D01*
X12846714Y-12230714D02*
X12789571Y-12230714D01*
X12761000Y-12245000D01*
X12746714Y-12259286D01*
X12718143Y-12302143D01*
X12703857Y-12359286D01*
X12703857Y-12473571D01*
X12718143Y-12502143D01*
X12732428Y-12516429D01*
X12761000Y-12530714D01*
X12818143Y-12530714D01*
X12846714Y-12516429D01*
X12861000Y-12502143D01*
X12875285Y-12473571D01*
X12875285Y-12402143D01*
X12861000Y-12373571D01*
X12846714Y-12359286D01*
X12818143Y-12345000D01*
X12761000Y-12345000D01*
X12732428Y-12359286D01*
X12718143Y-12373571D01*
X12703857Y-12402143D01*
X13232428Y-12530714D02*
X13232428Y-12230714D01*
X13361000Y-12530714D02*
X13361000Y-12373571D01*
X13346714Y-12345000D01*
X13318143Y-12330714D01*
X13275285Y-12330714D01*
X13246714Y-12345000D01*
X13232428Y-12359286D01*
X13546714Y-12530714D02*
X13518143Y-12516429D01*
X13503857Y-12502143D01*
X13489571Y-12473571D01*
X13489571Y-12387857D01*
X13503857Y-12359286D01*
X13518143Y-12345000D01*
X13546714Y-12330714D01*
X13589571Y-12330714D01*
X13618143Y-12345000D01*
X13632428Y-12359286D01*
X13646714Y-12387857D01*
X13646714Y-12473571D01*
X13632428Y-12502143D01*
X13618143Y-12516429D01*
X13589571Y-12530714D01*
X13546714Y-12530714D01*
X13818143Y-12530714D02*
X13789571Y-12516429D01*
X13775286Y-12487857D01*
X13775286Y-12230714D01*
X14046714Y-12516429D02*
X14018143Y-12530714D01*
X13961000Y-12530714D01*
X13932428Y-12516429D01*
X13918143Y-12487857D01*
X13918143Y-12373571D01*
X13932428Y-12345000D01*
X13961000Y-12330714D01*
X14018143Y-12330714D01*
X14046714Y-12345000D01*
X14061000Y-12373571D01*
X14061000Y-12402143D01*
X13918143Y-12430714D01*
X14175286Y-12516429D02*
X14203857Y-12530714D01*
X14261000Y-12530714D01*
X14289571Y-12516429D01*
X14303857Y-12487857D01*
X14303857Y-12473571D01*
X14289571Y-12445000D01*
X14261000Y-12430714D01*
X14218143Y-12430714D01*
X14189571Y-12416429D01*
X14175286Y-12387857D01*
X14175286Y-12373571D01*
X14189571Y-12345000D01*
X14218143Y-12330714D01*
X14261000Y-12330714D01*
X14289571Y-12345000D01*
X14403857Y-12645000D02*
X14418143Y-12630714D01*
X14446714Y-12587857D01*
X14461000Y-12559286D01*
X14475286Y-12516429D01*
X14489571Y-12445000D01*
X14489571Y-12387857D01*
X14475286Y-12316429D01*
X14461000Y-12273571D01*
X14446714Y-12245000D01*
X14418143Y-12202143D01*
X14403857Y-12187857D01*
X7361000Y-12791000D02*
G75*
G03X7361000Y-12791000I-30000J0D01*
G01*
X7689571Y-12626714D02*
X7718143Y-12626714D01*
X7746714Y-12641000D01*
X7761000Y-12655286D01*
X7775286Y-12683857D01*
X7789571Y-12741000D01*
X7789571Y-12812429D01*
X7775286Y-12869571D01*
X7761000Y-12898143D01*
X7746714Y-12912429D01*
X7718143Y-12926714D01*
X7689571Y-12926714D01*
X7661000Y-12912429D01*
X7646714Y-12898143D01*
X7632428Y-12869571D01*
X7618143Y-12812429D01*
X7618143Y-12741000D01*
X7632428Y-12683857D01*
X7646714Y-12655286D01*
X7661000Y-12641000D01*
X7689571Y-12626714D01*
X7918143Y-12898143D02*
X7932428Y-12912429D01*
X7918143Y-12926714D01*
X7903857Y-12912429D01*
X7918143Y-12898143D01*
X7918143Y-12926714D01*
X8189571Y-12626714D02*
X8132428Y-12626714D01*
X8103857Y-12641000D01*
X8089571Y-12655286D01*
X8061000Y-12698143D01*
X8046714Y-12755286D01*
X8046714Y-12869571D01*
X8061000Y-12898143D01*
X8075286Y-12912429D01*
X8103857Y-12926714D01*
X8161000Y-12926714D01*
X8189571Y-12912429D01*
X8203857Y-12898143D01*
X8218143Y-12869571D01*
X8218143Y-12798143D01*
X8203857Y-12769571D01*
X8189571Y-12755286D01*
X8161000Y-12741000D01*
X8103857Y-12741000D01*
X8075286Y-12755286D01*
X8061000Y-12769571D01*
X8046714Y-12798143D01*
X8403857Y-12626714D02*
X8432429Y-12626714D01*
X8461000Y-12641000D01*
X8475286Y-12655286D01*
X8489571Y-12683857D01*
X8503857Y-12741000D01*
X8503857Y-12812429D01*
X8489571Y-12869571D01*
X8475286Y-12898143D01*
X8461000Y-12912429D01*
X8432429Y-12926714D01*
X8403857Y-12926714D01*
X8375286Y-12912429D01*
X8361000Y-12898143D01*
X8346714Y-12869571D01*
X8332428Y-12812429D01*
X8332428Y-12741000D01*
X8346714Y-12683857D01*
X8361000Y-12655286D01*
X8375286Y-12641000D01*
X8403857Y-12626714D01*
X8632429Y-12926714D02*
X8632429Y-12726714D01*
X8632429Y-12755286D02*
X8646714Y-12741000D01*
X8675286Y-12726714D01*
X8718143Y-12726714D01*
X8746714Y-12741000D01*
X8761000Y-12769571D01*
X8761000Y-12926714D01*
X8761000Y-12769571D02*
X8775286Y-12741000D01*
X8803857Y-12726714D01*
X8846714Y-12726714D01*
X8875286Y-12741000D01*
X8889571Y-12769571D01*
X8889571Y-12926714D01*
X9032429Y-12926714D02*
X9032429Y-12726714D01*
X9032429Y-12755286D02*
X9046714Y-12741000D01*
X9075286Y-12726714D01*
X9118143Y-12726714D01*
X9146714Y-12741000D01*
X9161000Y-12769571D01*
X9161000Y-12926714D01*
X9161000Y-12769571D02*
X9175286Y-12741000D01*
X9203857Y-12726714D01*
X9246714Y-12726714D01*
X9275286Y-12741000D01*
X9289571Y-12769571D01*
X9289571Y-12926714D01*
X9875286Y-12612429D02*
X9618143Y-12998143D01*
X10261000Y-12626714D02*
X10289571Y-12626714D01*
X10318143Y-12641000D01*
X10332428Y-12655286D01*
X10346714Y-12683857D01*
X10361000Y-12741000D01*
X10361000Y-12812429D01*
X10346714Y-12869571D01*
X10332428Y-12898143D01*
X10318143Y-12912429D01*
X10289571Y-12926714D01*
X10261000Y-12926714D01*
X10232428Y-12912429D01*
X10218143Y-12898143D01*
X10203857Y-12869571D01*
X10189571Y-12812429D01*
X10189571Y-12741000D01*
X10203857Y-12683857D01*
X10218143Y-12655286D01*
X10232428Y-12641000D01*
X10261000Y-12626714D01*
X10489571Y-12898143D02*
X10503857Y-12912429D01*
X10489571Y-12926714D01*
X10475286Y-12912429D01*
X10489571Y-12898143D01*
X10489571Y-12926714D01*
X10689571Y-12626714D02*
X10718143Y-12626714D01*
X10746714Y-12641000D01*
X10761000Y-12655286D01*
X10775286Y-12683857D01*
X10789571Y-12741000D01*
X10789571Y-12812429D01*
X10775286Y-12869571D01*
X10761000Y-12898143D01*
X10746714Y-12912429D01*
X10718143Y-12926714D01*
X10689571Y-12926714D01*
X10661000Y-12912429D01*
X10646714Y-12898143D01*
X10632428Y-12869571D01*
X10618143Y-12812429D01*
X10618143Y-12741000D01*
X10632428Y-12683857D01*
X10646714Y-12655286D01*
X10661000Y-12641000D01*
X10689571Y-12626714D01*
X10903857Y-12655286D02*
X10918143Y-12641000D01*
X10946714Y-12626714D01*
X11018143Y-12626714D01*
X11046714Y-12641000D01*
X11061000Y-12655286D01*
X11075286Y-12683857D01*
X11075286Y-12712429D01*
X11061000Y-12755286D01*
X10889571Y-12926714D01*
X11075286Y-12926714D01*
X11332428Y-12726714D02*
X11332428Y-12926714D01*
X11261000Y-12612429D02*
X11189571Y-12826714D01*
X11375285Y-12826714D01*
X11475286Y-12626714D02*
X11475286Y-12683857D01*
X11589571Y-12626714D02*
X11589571Y-12683857D01*
X12032428Y-13041000D02*
X12018143Y-13026714D01*
X11989571Y-12983857D01*
X11975285Y-12955286D01*
X11961000Y-12912429D01*
X11946714Y-12841000D01*
X11946714Y-12783857D01*
X11961000Y-12712429D01*
X11975285Y-12669571D01*
X11989571Y-12641000D01*
X12018143Y-12598143D01*
X12032428Y-12583857D01*
X12275285Y-12626714D02*
X12218143Y-12626714D01*
X12189571Y-12641000D01*
X12175285Y-12655286D01*
X12146714Y-12698143D01*
X12132428Y-12755286D01*
X12132428Y-12869571D01*
X12146714Y-12898143D01*
X12161000Y-12912429D01*
X12189571Y-12926714D01*
X12246714Y-12926714D01*
X12275285Y-12912429D01*
X12289571Y-12898143D01*
X12303857Y-12869571D01*
X12303857Y-12798143D01*
X12289571Y-12769571D01*
X12275285Y-12755286D01*
X12246714Y-12741000D01*
X12189571Y-12741000D01*
X12161000Y-12755286D01*
X12146714Y-12769571D01*
X12132428Y-12798143D01*
X12661000Y-12926714D02*
X12661000Y-12626714D01*
X12789571Y-12926714D02*
X12789571Y-12769571D01*
X12775285Y-12741000D01*
X12746714Y-12726714D01*
X12703857Y-12726714D01*
X12675285Y-12741000D01*
X12661000Y-12755286D01*
X12975285Y-12926714D02*
X12946714Y-12912429D01*
X12932428Y-12898143D01*
X12918143Y-12869571D01*
X12918143Y-12783857D01*
X12932428Y-12755286D01*
X12946714Y-12741000D01*
X12975285Y-12726714D01*
X13018143Y-12726714D01*
X13046714Y-12741000D01*
X13061000Y-12755286D01*
X13075285Y-12783857D01*
X13075285Y-12869571D01*
X13061000Y-12898143D01*
X13046714Y-12912429D01*
X13018143Y-12926714D01*
X12975285Y-12926714D01*
X13246714Y-12926714D02*
X13218143Y-12912429D01*
X13203857Y-12883857D01*
X13203857Y-12626714D01*
X13475286Y-12912429D02*
X13446714Y-12926714D01*
X13389571Y-12926714D01*
X13361000Y-12912429D01*
X13346714Y-12883857D01*
X13346714Y-12769571D01*
X13361000Y-12741000D01*
X13389571Y-12726714D01*
X13446714Y-12726714D01*
X13475286Y-12741000D01*
X13489571Y-12769571D01*
X13489571Y-12798143D01*
X13346714Y-12826714D01*
X13603857Y-12912429D02*
X13632428Y-12926714D01*
X13689571Y-12926714D01*
X13718143Y-12912429D01*
X13732428Y-12883857D01*
X13732428Y-12869571D01*
X13718143Y-12841000D01*
X13689571Y-12826714D01*
X13646714Y-12826714D01*
X13618143Y-12812429D01*
X13603857Y-12783857D01*
X13603857Y-12769571D01*
X13618143Y-12741000D01*
X13646714Y-12726714D01*
X13689571Y-12726714D01*
X13718143Y-12741000D01*
X13832428Y-13041000D02*
X13846714Y-13026714D01*
X13875286Y-12983857D01*
X13889571Y-12955286D01*
X13903857Y-12912429D01*
X13918143Y-12841000D01*
X13918143Y-12783857D01*
X13903857Y-12712429D01*
X13889571Y-12669571D01*
X13875286Y-12641000D01*
X13846714Y-12598143D01*
X13832428Y-12583857D01*
X7321000Y-13147000D02*
X7321000Y-13227000D01*
X7281000Y-13187000D02*
X7361000Y-13187000D01*
X7689571Y-13022714D02*
X7718143Y-13022714D01*
X7746714Y-13037000D01*
X7761000Y-13051286D01*
X7775286Y-13079857D01*
X7789571Y-13137000D01*
X7789571Y-13208429D01*
X7775286Y-13265571D01*
X7761000Y-13294143D01*
X7746714Y-13308429D01*
X7718143Y-13322714D01*
X7689571Y-13322714D01*
X7661000Y-13308429D01*
X7646714Y-13294143D01*
X7632428Y-13265571D01*
X7618143Y-13208429D01*
X7618143Y-13137000D01*
X7632428Y-13079857D01*
X7646714Y-13051286D01*
X7661000Y-13037000D01*
X7689571Y-13022714D01*
X7918143Y-13294143D02*
X7932428Y-13308429D01*
X7918143Y-13322714D01*
X7903857Y-13308429D01*
X7918143Y-13294143D01*
X7918143Y-13322714D01*
X8103857Y-13151286D02*
X8075286Y-13137000D01*
X8061000Y-13122714D01*
X8046714Y-13094143D01*
X8046714Y-13079857D01*
X8061000Y-13051286D01*
X8075286Y-13037000D01*
X8103857Y-13022714D01*
X8161000Y-13022714D01*
X8189571Y-13037000D01*
X8203857Y-13051286D01*
X8218143Y-13079857D01*
X8218143Y-13094143D01*
X8203857Y-13122714D01*
X8189571Y-13137000D01*
X8161000Y-13151286D01*
X8103857Y-13151286D01*
X8075286Y-13165571D01*
X8061000Y-13179857D01*
X8046714Y-13208429D01*
X8046714Y-13265571D01*
X8061000Y-13294143D01*
X8075286Y-13308429D01*
X8103857Y-13322714D01*
X8161000Y-13322714D01*
X8189571Y-13308429D01*
X8203857Y-13294143D01*
X8218143Y-13265571D01*
X8218143Y-13208429D01*
X8203857Y-13179857D01*
X8189571Y-13165571D01*
X8161000Y-13151286D01*
X8403857Y-13022714D02*
X8432429Y-13022714D01*
X8461000Y-13037000D01*
X8475286Y-13051286D01*
X8489571Y-13079857D01*
X8503857Y-13137000D01*
X8503857Y-13208429D01*
X8489571Y-13265571D01*
X8475286Y-13294143D01*
X8461000Y-13308429D01*
X8432429Y-13322714D01*
X8403857Y-13322714D01*
X8375286Y-13308429D01*
X8361000Y-13294143D01*
X8346714Y-13265571D01*
X8332428Y-13208429D01*
X8332428Y-13137000D01*
X8346714Y-13079857D01*
X8361000Y-13051286D01*
X8375286Y-13037000D01*
X8403857Y-13022714D01*
X8632429Y-13322714D02*
X8632429Y-13122714D01*
X8632429Y-13151286D02*
X8646714Y-13137000D01*
X8675286Y-13122714D01*
X8718143Y-13122714D01*
X8746714Y-13137000D01*
X8761000Y-13165571D01*
X8761000Y-13322714D01*
X8761000Y-13165571D02*
X8775286Y-13137000D01*
X8803857Y-13122714D01*
X8846714Y-13122714D01*
X8875286Y-13137000D01*
X8889571Y-13165571D01*
X8889571Y-13322714D01*
X9032429Y-13322714D02*
X9032429Y-13122714D01*
X9032429Y-13151286D02*
X9046714Y-13137000D01*
X9075286Y-13122714D01*
X9118143Y-13122714D01*
X9146714Y-13137000D01*
X9161000Y-13165571D01*
X9161000Y-13322714D01*
X9161000Y-13165571D02*
X9175286Y-13137000D01*
X9203857Y-13122714D01*
X9246714Y-13122714D01*
X9275286Y-13137000D01*
X9289571Y-13165571D01*
X9289571Y-13322714D01*
X9875286Y-13008429D02*
X9618143Y-13394143D01*
X10261000Y-13022714D02*
X10289571Y-13022714D01*
X10318143Y-13037000D01*
X10332428Y-13051286D01*
X10346714Y-13079857D01*
X10361000Y-13137000D01*
X10361000Y-13208429D01*
X10346714Y-13265571D01*
X10332428Y-13294143D01*
X10318143Y-13308429D01*
X10289571Y-13322714D01*
X10261000Y-13322714D01*
X10232428Y-13308429D01*
X10218143Y-13294143D01*
X10203857Y-13265571D01*
X10189571Y-13208429D01*
X10189571Y-13137000D01*
X10203857Y-13079857D01*
X10218143Y-13051286D01*
X10232428Y-13037000D01*
X10261000Y-13022714D01*
X10489571Y-13294143D02*
X10503857Y-13308429D01*
X10489571Y-13322714D01*
X10475286Y-13308429D01*
X10489571Y-13294143D01*
X10489571Y-13322714D01*
X10689571Y-13022714D02*
X10718143Y-13022714D01*
X10746714Y-13037000D01*
X10761000Y-13051286D01*
X10775286Y-13079857D01*
X10789571Y-13137000D01*
X10789571Y-13208429D01*
X10775286Y-13265571D01*
X10761000Y-13294143D01*
X10746714Y-13308429D01*
X10718143Y-13322714D01*
X10689571Y-13322714D01*
X10661000Y-13308429D01*
X10646714Y-13294143D01*
X10632428Y-13265571D01*
X10618143Y-13208429D01*
X10618143Y-13137000D01*
X10632428Y-13079857D01*
X10646714Y-13051286D01*
X10661000Y-13037000D01*
X10689571Y-13022714D01*
X10889571Y-13022714D02*
X11075286Y-13022714D01*
X10975286Y-13137000D01*
X11018143Y-13137000D01*
X11046714Y-13151286D01*
X11061000Y-13165571D01*
X11075286Y-13194143D01*
X11075286Y-13265571D01*
X11061000Y-13294143D01*
X11046714Y-13308429D01*
X11018143Y-13322714D01*
X10932428Y-13322714D01*
X10903857Y-13308429D01*
X10889571Y-13294143D01*
X11361000Y-13322714D02*
X11189571Y-13322714D01*
X11275285Y-13322714D02*
X11275285Y-13022714D01*
X11246714Y-13065571D01*
X11218143Y-13094143D01*
X11189571Y-13108429D01*
X11475286Y-13022714D02*
X11475286Y-13079857D01*
X11589571Y-13022714D02*
X11589571Y-13079857D01*
X12032428Y-13437000D02*
X12018143Y-13422714D01*
X11989571Y-13379857D01*
X11975285Y-13351286D01*
X11961000Y-13308429D01*
X11946714Y-13237000D01*
X11946714Y-13179857D01*
X11961000Y-13108429D01*
X11975285Y-13065571D01*
X11989571Y-13037000D01*
X12018143Y-12994143D01*
X12032428Y-12979857D01*
X12275285Y-13122714D02*
X12275285Y-13322714D01*
X12203857Y-13008429D02*
X12132428Y-13222714D01*
X12318143Y-13222714D01*
X12661000Y-13322714D02*
X12661000Y-13022714D01*
X12789571Y-13322714D02*
X12789571Y-13165571D01*
X12775285Y-13137000D01*
X12746714Y-13122714D01*
X12703857Y-13122714D01*
X12675285Y-13137000D01*
X12661000Y-13151286D01*
X12975285Y-13322714D02*
X12946714Y-13308429D01*
X12932428Y-13294143D01*
X12918143Y-13265571D01*
X12918143Y-13179857D01*
X12932428Y-13151286D01*
X12946714Y-13137000D01*
X12975285Y-13122714D01*
X13018143Y-13122714D01*
X13046714Y-13137000D01*
X13061000Y-13151286D01*
X13075285Y-13179857D01*
X13075285Y-13265571D01*
X13061000Y-13294143D01*
X13046714Y-13308429D01*
X13018143Y-13322714D01*
X12975285Y-13322714D01*
X13246714Y-13322714D02*
X13218143Y-13308429D01*
X13203857Y-13279857D01*
X13203857Y-13022714D01*
X13475286Y-13308429D02*
X13446714Y-13322714D01*
X13389571Y-13322714D01*
X13361000Y-13308429D01*
X13346714Y-13279857D01*
X13346714Y-13165571D01*
X13361000Y-13137000D01*
X13389571Y-13122714D01*
X13446714Y-13122714D01*
X13475286Y-13137000D01*
X13489571Y-13165571D01*
X13489571Y-13194143D01*
X13346714Y-13222714D01*
X13603857Y-13308429D02*
X13632428Y-13322714D01*
X13689571Y-13322714D01*
X13718143Y-13308429D01*
X13732428Y-13279857D01*
X13732428Y-13265571D01*
X13718143Y-13237000D01*
X13689571Y-13222714D01*
X13646714Y-13222714D01*
X13618143Y-13208429D01*
X13603857Y-13179857D01*
X13603857Y-13165571D01*
X13618143Y-13137000D01*
X13646714Y-13122714D01*
X13689571Y-13122714D01*
X13718143Y-13137000D01*
X13832428Y-13437000D02*
X13846714Y-13422714D01*
X13875286Y-13379857D01*
X13889571Y-13351286D01*
X13903857Y-13308429D01*
X13918143Y-13237000D01*
X13918143Y-13179857D01*
X13903857Y-13108429D01*
X13889571Y-13065571D01*
X13875286Y-13037000D01*
X13846714Y-12994143D01*
X13832428Y-12979857D01*
X7346382Y-13618293D02*
X7346382Y-13547707D01*
X7275796Y-13547707D01*
X7275796Y-13618293D01*
X7346382Y-13618293D01*
X7789571Y-13718714D02*
X7618143Y-13718714D01*
X7703857Y-13718714D02*
X7703857Y-13418714D01*
X7675286Y-13461571D01*
X7646714Y-13490143D01*
X7618143Y-13504429D01*
X7918143Y-13690143D02*
X7932428Y-13704429D01*
X7918143Y-13718714D01*
X7903857Y-13704429D01*
X7918143Y-13690143D01*
X7918143Y-13718714D01*
X8118143Y-13418714D02*
X8146714Y-13418714D01*
X8175286Y-13433000D01*
X8189571Y-13447286D01*
X8203857Y-13475857D01*
X8218143Y-13533000D01*
X8218143Y-13604429D01*
X8203857Y-13661571D01*
X8189571Y-13690143D01*
X8175286Y-13704429D01*
X8146714Y-13718714D01*
X8118143Y-13718714D01*
X8089571Y-13704429D01*
X8075286Y-13690143D01*
X8061000Y-13661571D01*
X8046714Y-13604429D01*
X8046714Y-13533000D01*
X8061000Y-13475857D01*
X8075286Y-13447286D01*
X8089571Y-13433000D01*
X8118143Y-13418714D01*
X8403857Y-13418714D02*
X8432429Y-13418714D01*
X8461000Y-13433000D01*
X8475286Y-13447286D01*
X8489571Y-13475857D01*
X8503857Y-13533000D01*
X8503857Y-13604429D01*
X8489571Y-13661571D01*
X8475286Y-13690143D01*
X8461000Y-13704429D01*
X8432429Y-13718714D01*
X8403857Y-13718714D01*
X8375286Y-13704429D01*
X8361000Y-13690143D01*
X8346714Y-13661571D01*
X8332428Y-13604429D01*
X8332428Y-13533000D01*
X8346714Y-13475857D01*
X8361000Y-13447286D01*
X8375286Y-13433000D01*
X8403857Y-13418714D01*
X8632429Y-13718714D02*
X8632429Y-13518714D01*
X8632429Y-13547286D02*
X8646714Y-13533000D01*
X8675286Y-13518714D01*
X8718143Y-13518714D01*
X8746714Y-13533000D01*
X8761000Y-13561571D01*
X8761000Y-13718714D01*
X8761000Y-13561571D02*
X8775286Y-13533000D01*
X8803857Y-13518714D01*
X8846714Y-13518714D01*
X8875286Y-13533000D01*
X8889571Y-13561571D01*
X8889571Y-13718714D01*
X9032429Y-13718714D02*
X9032429Y-13518714D01*
X9032429Y-13547286D02*
X9046714Y-13533000D01*
X9075286Y-13518714D01*
X9118143Y-13518714D01*
X9146714Y-13533000D01*
X9161000Y-13561571D01*
X9161000Y-13718714D01*
X9161000Y-13561571D02*
X9175286Y-13533000D01*
X9203857Y-13518714D01*
X9246714Y-13518714D01*
X9275286Y-13533000D01*
X9289571Y-13561571D01*
X9289571Y-13718714D01*
X9875286Y-13404429D02*
X9618143Y-13790143D01*
X10261000Y-13418714D02*
X10289571Y-13418714D01*
X10318143Y-13433000D01*
X10332428Y-13447286D01*
X10346714Y-13475857D01*
X10361000Y-13533000D01*
X10361000Y-13604429D01*
X10346714Y-13661571D01*
X10332428Y-13690143D01*
X10318143Y-13704429D01*
X10289571Y-13718714D01*
X10261000Y-13718714D01*
X10232428Y-13704429D01*
X10218143Y-13690143D01*
X10203857Y-13661571D01*
X10189571Y-13604429D01*
X10189571Y-13533000D01*
X10203857Y-13475857D01*
X10218143Y-13447286D01*
X10232428Y-13433000D01*
X10261000Y-13418714D01*
X10489571Y-13690143D02*
X10503857Y-13704429D01*
X10489571Y-13718714D01*
X10475286Y-13704429D01*
X10489571Y-13690143D01*
X10489571Y-13718714D01*
X10689571Y-13418714D02*
X10718143Y-13418714D01*
X10746714Y-13433000D01*
X10761000Y-13447286D01*
X10775286Y-13475857D01*
X10789571Y-13533000D01*
X10789571Y-13604429D01*
X10775286Y-13661571D01*
X10761000Y-13690143D01*
X10746714Y-13704429D01*
X10718143Y-13718714D01*
X10689571Y-13718714D01*
X10661000Y-13704429D01*
X10646714Y-13690143D01*
X10632428Y-13661571D01*
X10618143Y-13604429D01*
X10618143Y-13533000D01*
X10632428Y-13475857D01*
X10646714Y-13447286D01*
X10661000Y-13433000D01*
X10689571Y-13418714D01*
X10889571Y-13418714D02*
X11075286Y-13418714D01*
X10975286Y-13533000D01*
X11018143Y-13533000D01*
X11046714Y-13547286D01*
X11061000Y-13561571D01*
X11075286Y-13590143D01*
X11075286Y-13661571D01*
X11061000Y-13690143D01*
X11046714Y-13704429D01*
X11018143Y-13718714D01*
X10932428Y-13718714D01*
X10903857Y-13704429D01*
X10889571Y-13690143D01*
X11218143Y-13718714D02*
X11275285Y-13718714D01*
X11303857Y-13704429D01*
X11318143Y-13690143D01*
X11346714Y-13647286D01*
X11361000Y-13590143D01*
X11361000Y-13475857D01*
X11346714Y-13447286D01*
X11332428Y-13433000D01*
X11303857Y-13418714D01*
X11246714Y-13418714D01*
X11218143Y-13433000D01*
X11203857Y-13447286D01*
X11189571Y-13475857D01*
X11189571Y-13547286D01*
X11203857Y-13575857D01*
X11218143Y-13590143D01*
X11246714Y-13604429D01*
X11303857Y-13604429D01*
X11332428Y-13590143D01*
X11346714Y-13575857D01*
X11361000Y-13547286D01*
X11475286Y-13418714D02*
X11475286Y-13475857D01*
X11589571Y-13418714D02*
X11589571Y-13475857D01*
X12032428Y-13833000D02*
X12018143Y-13818714D01*
X11989571Y-13775857D01*
X11975285Y-13747286D01*
X11961000Y-13704429D01*
X11946714Y-13633000D01*
X11946714Y-13575857D01*
X11961000Y-13504429D01*
X11975285Y-13461571D01*
X11989571Y-13433000D01*
X12018143Y-13390143D01*
X12032428Y-13375857D01*
X12303857Y-13718714D02*
X12132428Y-13718714D01*
X12218143Y-13718714D02*
X12218143Y-13418714D01*
X12189571Y-13461571D01*
X12161000Y-13490143D01*
X12132428Y-13504429D01*
X12561000Y-13518714D02*
X12561000Y-13718714D01*
X12489571Y-13404429D02*
X12418143Y-13618714D01*
X12603857Y-13618714D01*
X12946714Y-13718714D02*
X12946714Y-13418714D01*
X13075285Y-13718714D02*
X13075285Y-13561571D01*
X13061000Y-13533000D01*
X13032428Y-13518714D01*
X12989571Y-13518714D01*
X12961000Y-13533000D01*
X12946714Y-13547286D01*
X13261000Y-13718714D02*
X13232428Y-13704429D01*
X13218143Y-13690143D01*
X13203857Y-13661571D01*
X13203857Y-13575857D01*
X13218143Y-13547286D01*
X13232428Y-13533000D01*
X13261000Y-13518714D01*
X13303857Y-13518714D01*
X13332428Y-13533000D01*
X13346714Y-13547286D01*
X13361000Y-13575857D01*
X13361000Y-13661571D01*
X13346714Y-13690143D01*
X13332428Y-13704429D01*
X13303857Y-13718714D01*
X13261000Y-13718714D01*
X13532428Y-13718714D02*
X13503857Y-13704429D01*
X13489571Y-13675857D01*
X13489571Y-13418714D01*
X13761000Y-13704429D02*
X13732428Y-13718714D01*
X13675286Y-13718714D01*
X13646714Y-13704429D01*
X13632428Y-13675857D01*
X13632428Y-13561571D01*
X13646714Y-13533000D01*
X13675286Y-13518714D01*
X13732428Y-13518714D01*
X13761000Y-13533000D01*
X13775286Y-13561571D01*
X13775286Y-13590143D01*
X13632428Y-13618714D01*
X13889571Y-13704429D02*
X13918143Y-13718714D01*
X13975286Y-13718714D01*
X14003857Y-13704429D01*
X14018143Y-13675857D01*
X14018143Y-13661571D01*
X14003857Y-13633000D01*
X13975286Y-13618714D01*
X13932428Y-13618714D01*
X13903857Y-13604429D01*
X13889571Y-13575857D01*
X13889571Y-13561571D01*
X13903857Y-13533000D01*
X13932428Y-13518714D01*
X13975286Y-13518714D01*
X14003857Y-13533000D01*
X14118143Y-13833000D02*
X14132428Y-13818714D01*
X14161000Y-13775857D01*
X14175286Y-13747286D01*
X14189571Y-13704429D01*
X14203857Y-13633000D01*
X14203857Y-13575857D01*
X14189571Y-13504429D01*
X14175286Y-13461571D01*
X14161000Y-13433000D01*
X14132428Y-13390143D01*
X14118143Y-13375857D01*
X7310200Y-14029800D02*
X7361000Y-13979000D01*
X7310200Y-13928200D01*
X7259400Y-13979000D01*
X7310200Y-14029800D01*
X7789571Y-14114714D02*
X7618143Y-14114714D01*
X7703857Y-14114714D02*
X7703857Y-13814714D01*
X7675286Y-13857571D01*
X7646714Y-13886143D01*
X7618143Y-13900429D01*
X7918143Y-14086143D02*
X7932428Y-14100429D01*
X7918143Y-14114714D01*
X7903857Y-14100429D01*
X7918143Y-14086143D01*
X7918143Y-14114714D01*
X8118143Y-13814714D02*
X8146714Y-13814714D01*
X8175286Y-13829000D01*
X8189571Y-13843286D01*
X8203857Y-13871857D01*
X8218143Y-13929000D01*
X8218143Y-14000429D01*
X8203857Y-14057571D01*
X8189571Y-14086143D01*
X8175286Y-14100429D01*
X8146714Y-14114714D01*
X8118143Y-14114714D01*
X8089571Y-14100429D01*
X8075286Y-14086143D01*
X8061000Y-14057571D01*
X8046714Y-14000429D01*
X8046714Y-13929000D01*
X8061000Y-13871857D01*
X8075286Y-13843286D01*
X8089571Y-13829000D01*
X8118143Y-13814714D01*
X8332428Y-13843286D02*
X8346714Y-13829000D01*
X8375286Y-13814714D01*
X8446714Y-13814714D01*
X8475286Y-13829000D01*
X8489571Y-13843286D01*
X8503857Y-13871857D01*
X8503857Y-13900429D01*
X8489571Y-13943286D01*
X8318143Y-14114714D01*
X8503857Y-14114714D01*
X8632429Y-14114714D02*
X8632429Y-13914714D01*
X8632429Y-13943286D02*
X8646714Y-13929000D01*
X8675286Y-13914714D01*
X8718143Y-13914714D01*
X8746714Y-13929000D01*
X8761000Y-13957571D01*
X8761000Y-14114714D01*
X8761000Y-13957571D02*
X8775286Y-13929000D01*
X8803857Y-13914714D01*
X8846714Y-13914714D01*
X8875286Y-13929000D01*
X8889571Y-13957571D01*
X8889571Y-14114714D01*
X9032429Y-14114714D02*
X9032429Y-13914714D01*
X9032429Y-13943286D02*
X9046714Y-13929000D01*
X9075286Y-13914714D01*
X9118143Y-13914714D01*
X9146714Y-13929000D01*
X9161000Y-13957571D01*
X9161000Y-14114714D01*
X9161000Y-13957571D02*
X9175286Y-13929000D01*
X9203857Y-13914714D01*
X9246714Y-13914714D01*
X9275286Y-13929000D01*
X9289571Y-13957571D01*
X9289571Y-14114714D01*
X9875286Y-13800429D02*
X9618143Y-14186143D01*
X10261000Y-13814714D02*
X10289571Y-13814714D01*
X10318143Y-13829000D01*
X10332428Y-13843286D01*
X10346714Y-13871857D01*
X10361000Y-13929000D01*
X10361000Y-14000429D01*
X10346714Y-14057571D01*
X10332428Y-14086143D01*
X10318143Y-14100429D01*
X10289571Y-14114714D01*
X10261000Y-14114714D01*
X10232428Y-14100429D01*
X10218143Y-14086143D01*
X10203857Y-14057571D01*
X10189571Y-14000429D01*
X10189571Y-13929000D01*
X10203857Y-13871857D01*
X10218143Y-13843286D01*
X10232428Y-13829000D01*
X10261000Y-13814714D01*
X10489571Y-14086143D02*
X10503857Y-14100429D01*
X10489571Y-14114714D01*
X10475286Y-14100429D01*
X10489571Y-14086143D01*
X10489571Y-14114714D01*
X10689571Y-13814714D02*
X10718143Y-13814714D01*
X10746714Y-13829000D01*
X10761000Y-13843286D01*
X10775286Y-13871857D01*
X10789571Y-13929000D01*
X10789571Y-14000429D01*
X10775286Y-14057571D01*
X10761000Y-14086143D01*
X10746714Y-14100429D01*
X10718143Y-14114714D01*
X10689571Y-14114714D01*
X10661000Y-14100429D01*
X10646714Y-14086143D01*
X10632428Y-14057571D01*
X10618143Y-14000429D01*
X10618143Y-13929000D01*
X10632428Y-13871857D01*
X10646714Y-13843286D01*
X10661000Y-13829000D01*
X10689571Y-13814714D01*
X11046714Y-13914714D02*
X11046714Y-14114714D01*
X10975286Y-13800429D02*
X10903857Y-14014714D01*
X11089571Y-14014714D01*
X11261000Y-13814714D02*
X11289571Y-13814714D01*
X11318143Y-13829000D01*
X11332428Y-13843286D01*
X11346714Y-13871857D01*
X11361000Y-13929000D01*
X11361000Y-14000429D01*
X11346714Y-14057571D01*
X11332428Y-14086143D01*
X11318143Y-14100429D01*
X11289571Y-14114714D01*
X11261000Y-14114714D01*
X11232428Y-14100429D01*
X11218143Y-14086143D01*
X11203857Y-14057571D01*
X11189571Y-14000429D01*
X11189571Y-13929000D01*
X11203857Y-13871857D01*
X11218143Y-13843286D01*
X11232428Y-13829000D01*
X11261000Y-13814714D01*
X11475286Y-13814714D02*
X11475286Y-13871857D01*
X11589571Y-13814714D02*
X11589571Y-13871857D01*
X12032428Y-14229000D02*
X12018143Y-14214714D01*
X11989571Y-14171857D01*
X11975285Y-14143286D01*
X11961000Y-14100429D01*
X11946714Y-14029000D01*
X11946714Y-13971857D01*
X11961000Y-13900429D01*
X11975285Y-13857571D01*
X11989571Y-13829000D01*
X12018143Y-13786143D01*
X12032428Y-13771857D01*
X12275285Y-13914714D02*
X12275285Y-14114714D01*
X12203857Y-13800429D02*
X12132428Y-14014714D01*
X12318143Y-14014714D01*
X12489571Y-13814714D02*
X12518143Y-13814714D01*
X12546714Y-13829000D01*
X12561000Y-13843286D01*
X12575285Y-13871857D01*
X12589571Y-13929000D01*
X12589571Y-14000429D01*
X12575285Y-14057571D01*
X12561000Y-14086143D01*
X12546714Y-14100429D01*
X12518143Y-14114714D01*
X12489571Y-14114714D01*
X12461000Y-14100429D01*
X12446714Y-14086143D01*
X12432428Y-14057571D01*
X12418143Y-14000429D01*
X12418143Y-13929000D01*
X12432428Y-13871857D01*
X12446714Y-13843286D01*
X12461000Y-13829000D01*
X12489571Y-13814714D01*
X12946714Y-14114714D02*
X12946714Y-13814714D01*
X13075285Y-14114714D02*
X13075285Y-13957571D01*
X13061000Y-13929000D01*
X13032428Y-13914714D01*
X12989571Y-13914714D01*
X12961000Y-13929000D01*
X12946714Y-13943286D01*
X13261000Y-14114714D02*
X13232428Y-14100429D01*
X13218143Y-14086143D01*
X13203857Y-14057571D01*
X13203857Y-13971857D01*
X13218143Y-13943286D01*
X13232428Y-13929000D01*
X13261000Y-13914714D01*
X13303857Y-13914714D01*
X13332428Y-13929000D01*
X13346714Y-13943286D01*
X13361000Y-13971857D01*
X13361000Y-14057571D01*
X13346714Y-14086143D01*
X13332428Y-14100429D01*
X13303857Y-14114714D01*
X13261000Y-14114714D01*
X13532428Y-14114714D02*
X13503857Y-14100429D01*
X13489571Y-14071857D01*
X13489571Y-13814714D01*
X13761000Y-14100429D02*
X13732428Y-14114714D01*
X13675286Y-14114714D01*
X13646714Y-14100429D01*
X13632428Y-14071857D01*
X13632428Y-13957571D01*
X13646714Y-13929000D01*
X13675286Y-13914714D01*
X13732428Y-13914714D01*
X13761000Y-13929000D01*
X13775286Y-13957571D01*
X13775286Y-13986143D01*
X13632428Y-14014714D01*
X13889571Y-14100429D02*
X13918143Y-14114714D01*
X13975286Y-14114714D01*
X14003857Y-14100429D01*
X14018143Y-14071857D01*
X14018143Y-14057571D01*
X14003857Y-14029000D01*
X13975286Y-14014714D01*
X13932428Y-14014714D01*
X13903857Y-14000429D01*
X13889571Y-13971857D01*
X13889571Y-13957571D01*
X13903857Y-13929000D01*
X13932428Y-13914714D01*
X13975286Y-13914714D01*
X14003857Y-13929000D01*
X14118143Y-14229000D02*
X14132428Y-14214714D01*
X14161000Y-14171857D01*
X14175286Y-14143286D01*
X14189571Y-14100429D01*
X14203857Y-14029000D01*
X14203857Y-13971857D01*
X14189571Y-13900429D01*
X14175286Y-13857571D01*
X14161000Y-13829000D01*
X14132428Y-13786143D01*
X14118143Y-13771857D01*
X7246700Y-14317850D02*
X7361000Y-14432150D01*
X7361000Y-14317850D02*
X7246700Y-14432150D01*
X7361000Y-14375000D02*
G75*
G03X7361000Y-14375000I-57150J0D01*
G01*
X7789571Y-14510714D02*
X7618143Y-14510714D01*
X7703857Y-14510714D02*
X7703857Y-14210714D01*
X7675286Y-14253571D01*
X7646714Y-14282143D01*
X7618143Y-14296429D01*
X7918143Y-14482143D02*
X7932428Y-14496429D01*
X7918143Y-14510714D01*
X7903857Y-14496429D01*
X7918143Y-14482143D01*
X7918143Y-14510714D01*
X8218143Y-14510714D02*
X8046714Y-14510714D01*
X8132428Y-14510714D02*
X8132428Y-14210714D01*
X8103857Y-14253571D01*
X8075286Y-14282143D01*
X8046714Y-14296429D01*
X8475286Y-14310714D02*
X8475286Y-14510714D01*
X8403857Y-14196429D02*
X8332428Y-14410714D01*
X8518143Y-14410714D01*
X8632429Y-14510714D02*
X8632429Y-14310714D01*
X8632429Y-14339286D02*
X8646714Y-14325000D01*
X8675286Y-14310714D01*
X8718143Y-14310714D01*
X8746714Y-14325000D01*
X8761000Y-14353571D01*
X8761000Y-14510714D01*
X8761000Y-14353571D02*
X8775286Y-14325000D01*
X8803857Y-14310714D01*
X8846714Y-14310714D01*
X8875286Y-14325000D01*
X8889571Y-14353571D01*
X8889571Y-14510714D01*
X9032429Y-14510714D02*
X9032429Y-14310714D01*
X9032429Y-14339286D02*
X9046714Y-14325000D01*
X9075286Y-14310714D01*
X9118143Y-14310714D01*
X9146714Y-14325000D01*
X9161000Y-14353571D01*
X9161000Y-14510714D01*
X9161000Y-14353571D02*
X9175286Y-14325000D01*
X9203857Y-14310714D01*
X9246714Y-14310714D01*
X9275286Y-14325000D01*
X9289571Y-14353571D01*
X9289571Y-14510714D01*
X9875286Y-14196429D02*
X9618143Y-14582143D01*
X10261000Y-14210714D02*
X10289571Y-14210714D01*
X10318143Y-14225000D01*
X10332428Y-14239286D01*
X10346714Y-14267857D01*
X10361000Y-14325000D01*
X10361000Y-14396429D01*
X10346714Y-14453571D01*
X10332428Y-14482143D01*
X10318143Y-14496429D01*
X10289571Y-14510714D01*
X10261000Y-14510714D01*
X10232428Y-14496429D01*
X10218143Y-14482143D01*
X10203857Y-14453571D01*
X10189571Y-14396429D01*
X10189571Y-14325000D01*
X10203857Y-14267857D01*
X10218143Y-14239286D01*
X10232428Y-14225000D01*
X10261000Y-14210714D01*
X10489571Y-14482143D02*
X10503857Y-14496429D01*
X10489571Y-14510714D01*
X10475286Y-14496429D01*
X10489571Y-14482143D01*
X10489571Y-14510714D01*
X10689571Y-14210714D02*
X10718143Y-14210714D01*
X10746714Y-14225000D01*
X10761000Y-14239286D01*
X10775286Y-14267857D01*
X10789571Y-14325000D01*
X10789571Y-14396429D01*
X10775286Y-14453571D01*
X10761000Y-14482143D01*
X10746714Y-14496429D01*
X10718143Y-14510714D01*
X10689571Y-14510714D01*
X10661000Y-14496429D01*
X10646714Y-14482143D01*
X10632428Y-14453571D01*
X10618143Y-14396429D01*
X10618143Y-14325000D01*
X10632428Y-14267857D01*
X10646714Y-14239286D01*
X10661000Y-14225000D01*
X10689571Y-14210714D01*
X11046714Y-14310714D02*
X11046714Y-14510714D01*
X10975286Y-14196429D02*
X10903857Y-14410714D01*
X11089571Y-14410714D01*
X11346714Y-14210714D02*
X11203857Y-14210714D01*
X11189571Y-14353571D01*
X11203857Y-14339286D01*
X11232428Y-14325000D01*
X11303857Y-14325000D01*
X11332428Y-14339286D01*
X11346714Y-14353571D01*
X11361000Y-14382143D01*
X11361000Y-14453571D01*
X11346714Y-14482143D01*
X11332428Y-14496429D01*
X11303857Y-14510714D01*
X11232428Y-14510714D01*
X11203857Y-14496429D01*
X11189571Y-14482143D01*
X11475286Y-14210714D02*
X11475286Y-14267857D01*
X11589571Y-14210714D02*
X11589571Y-14267857D01*
X12032428Y-14625000D02*
X12018143Y-14610714D01*
X11989571Y-14567857D01*
X11975285Y-14539286D01*
X11961000Y-14496429D01*
X11946714Y-14425000D01*
X11946714Y-14367857D01*
X11961000Y-14296429D01*
X11975285Y-14253571D01*
X11989571Y-14225000D01*
X12018143Y-14182143D01*
X12032428Y-14167857D01*
X12118143Y-14210714D02*
X12303857Y-14210714D01*
X12203857Y-14325000D01*
X12246714Y-14325000D01*
X12275285Y-14339286D01*
X12289571Y-14353571D01*
X12303857Y-14382143D01*
X12303857Y-14453571D01*
X12289571Y-14482143D01*
X12275285Y-14496429D01*
X12246714Y-14510714D01*
X12161000Y-14510714D01*
X12132428Y-14496429D01*
X12118143Y-14482143D01*
X12661000Y-14510714D02*
X12661000Y-14210714D01*
X12789571Y-14510714D02*
X12789571Y-14353571D01*
X12775285Y-14325000D01*
X12746714Y-14310714D01*
X12703857Y-14310714D01*
X12675285Y-14325000D01*
X12661000Y-14339286D01*
X12975285Y-14510714D02*
X12946714Y-14496429D01*
X12932428Y-14482143D01*
X12918143Y-14453571D01*
X12918143Y-14367857D01*
X12932428Y-14339286D01*
X12946714Y-14325000D01*
X12975285Y-14310714D01*
X13018143Y-14310714D01*
X13046714Y-14325000D01*
X13061000Y-14339286D01*
X13075285Y-14367857D01*
X13075285Y-14453571D01*
X13061000Y-14482143D01*
X13046714Y-14496429D01*
X13018143Y-14510714D01*
X12975285Y-14510714D01*
X13246714Y-14510714D02*
X13218143Y-14496429D01*
X13203857Y-14467857D01*
X13203857Y-14210714D01*
X13475286Y-14496429D02*
X13446714Y-14510714D01*
X13389571Y-14510714D01*
X13361000Y-14496429D01*
X13346714Y-14467857D01*
X13346714Y-14353571D01*
X13361000Y-14325000D01*
X13389571Y-14310714D01*
X13446714Y-14310714D01*
X13475286Y-14325000D01*
X13489571Y-14353571D01*
X13489571Y-14382143D01*
X13346714Y-14410714D01*
X13603857Y-14496429D02*
X13632428Y-14510714D01*
X13689571Y-14510714D01*
X13718143Y-14496429D01*
X13732428Y-14467857D01*
X13732428Y-14453571D01*
X13718143Y-14425000D01*
X13689571Y-14410714D01*
X13646714Y-14410714D01*
X13618143Y-14396429D01*
X13603857Y-14367857D01*
X13603857Y-14353571D01*
X13618143Y-14325000D01*
X13646714Y-14310714D01*
X13689571Y-14310714D01*
X13718143Y-14325000D01*
X13832428Y-14625000D02*
X13846714Y-14610714D01*
X13875286Y-14567857D01*
X13889571Y-14539286D01*
X13903857Y-14496429D01*
X13918143Y-14425000D01*
X13918143Y-14367857D01*
X13903857Y-14296429D01*
X13889571Y-14253571D01*
X13875286Y-14225000D01*
X13846714Y-14182143D01*
X13832428Y-14167857D01*
X7234000Y-14707500D02*
X7361000Y-14834500D01*
X7361000Y-14707500D02*
X7234000Y-14834500D01*
X7297500Y-14707500D02*
X7297500Y-14834500D01*
X7234000Y-14771000D02*
X7361000Y-14771000D01*
X7789571Y-14906714D02*
X7618143Y-14906714D01*
X7703857Y-14906714D02*
X7703857Y-14606714D01*
X7675286Y-14649571D01*
X7646714Y-14678143D01*
X7618143Y-14692429D01*
X7918143Y-14878143D02*
X7932428Y-14892429D01*
X7918143Y-14906714D01*
X7903857Y-14892429D01*
X7918143Y-14878143D01*
X7918143Y-14906714D01*
X8046714Y-14635286D02*
X8061000Y-14621000D01*
X8089571Y-14606714D01*
X8161000Y-14606714D01*
X8189571Y-14621000D01*
X8203857Y-14635286D01*
X8218143Y-14663857D01*
X8218143Y-14692429D01*
X8203857Y-14735286D01*
X8032428Y-14906714D01*
X8218143Y-14906714D01*
X8318143Y-14606714D02*
X8518143Y-14606714D01*
X8389571Y-14906714D01*
X8632429Y-14906714D02*
X8632429Y-14706714D01*
X8632429Y-14735286D02*
X8646714Y-14721000D01*
X8675286Y-14706714D01*
X8718143Y-14706714D01*
X8746714Y-14721000D01*
X8761000Y-14749571D01*
X8761000Y-14906714D01*
X8761000Y-14749571D02*
X8775286Y-14721000D01*
X8803857Y-14706714D01*
X8846714Y-14706714D01*
X8875286Y-14721000D01*
X8889571Y-14749571D01*
X8889571Y-14906714D01*
X9032429Y-14906714D02*
X9032429Y-14706714D01*
X9032429Y-14735286D02*
X9046714Y-14721000D01*
X9075286Y-14706714D01*
X9118143Y-14706714D01*
X9146714Y-14721000D01*
X9161000Y-14749571D01*
X9161000Y-14906714D01*
X9161000Y-14749571D02*
X9175286Y-14721000D01*
X9203857Y-14706714D01*
X9246714Y-14706714D01*
X9275286Y-14721000D01*
X9289571Y-14749571D01*
X9289571Y-14906714D01*
X9875286Y-14592429D02*
X9618143Y-14978143D01*
X10261000Y-14606714D02*
X10289571Y-14606714D01*
X10318143Y-14621000D01*
X10332428Y-14635286D01*
X10346714Y-14663857D01*
X10361000Y-14721000D01*
X10361000Y-14792429D01*
X10346714Y-14849571D01*
X10332428Y-14878143D01*
X10318143Y-14892429D01*
X10289571Y-14906714D01*
X10261000Y-14906714D01*
X10232428Y-14892429D01*
X10218143Y-14878143D01*
X10203857Y-14849571D01*
X10189571Y-14792429D01*
X10189571Y-14721000D01*
X10203857Y-14663857D01*
X10218143Y-14635286D01*
X10232428Y-14621000D01*
X10261000Y-14606714D01*
X10489571Y-14878143D02*
X10503857Y-14892429D01*
X10489571Y-14906714D01*
X10475286Y-14892429D01*
X10489571Y-14878143D01*
X10489571Y-14906714D01*
X10689571Y-14606714D02*
X10718143Y-14606714D01*
X10746714Y-14621000D01*
X10761000Y-14635286D01*
X10775286Y-14663857D01*
X10789571Y-14721000D01*
X10789571Y-14792429D01*
X10775286Y-14849571D01*
X10761000Y-14878143D01*
X10746714Y-14892429D01*
X10718143Y-14906714D01*
X10689571Y-14906714D01*
X10661000Y-14892429D01*
X10646714Y-14878143D01*
X10632428Y-14849571D01*
X10618143Y-14792429D01*
X10618143Y-14721000D01*
X10632428Y-14663857D01*
X10646714Y-14635286D01*
X10661000Y-14621000D01*
X10689571Y-14606714D01*
X11061000Y-14606714D02*
X10918143Y-14606714D01*
X10903857Y-14749571D01*
X10918143Y-14735286D01*
X10946714Y-14721000D01*
X11018143Y-14721000D01*
X11046714Y-14735286D01*
X11061000Y-14749571D01*
X11075286Y-14778143D01*
X11075286Y-14849571D01*
X11061000Y-14878143D01*
X11046714Y-14892429D01*
X11018143Y-14906714D01*
X10946714Y-14906714D01*
X10918143Y-14892429D01*
X10903857Y-14878143D01*
X11261000Y-14606714D02*
X11289571Y-14606714D01*
X11318143Y-14621000D01*
X11332428Y-14635286D01*
X11346714Y-14663857D01*
X11361000Y-14721000D01*
X11361000Y-14792429D01*
X11346714Y-14849571D01*
X11332428Y-14878143D01*
X11318143Y-14892429D01*
X11289571Y-14906714D01*
X11261000Y-14906714D01*
X11232428Y-14892429D01*
X11218143Y-14878143D01*
X11203857Y-14849571D01*
X11189571Y-14792429D01*
X11189571Y-14721000D01*
X11203857Y-14663857D01*
X11218143Y-14635286D01*
X11232428Y-14621000D01*
X11261000Y-14606714D01*
X11475286Y-14606714D02*
X11475286Y-14663857D01*
X11589571Y-14606714D02*
X11589571Y-14663857D01*
X12032428Y-15021000D02*
X12018143Y-15006714D01*
X11989571Y-14963857D01*
X11975285Y-14935286D01*
X11961000Y-14892429D01*
X11946714Y-14821000D01*
X11946714Y-14763857D01*
X11961000Y-14692429D01*
X11975285Y-14649571D01*
X11989571Y-14621000D01*
X12018143Y-14578143D01*
X12032428Y-14563857D01*
X12303857Y-14906714D02*
X12132428Y-14906714D01*
X12218143Y-14906714D02*
X12218143Y-14606714D01*
X12189571Y-14649571D01*
X12161000Y-14678143D01*
X12132428Y-14692429D01*
X12661000Y-14906714D02*
X12661000Y-14606714D01*
X12789571Y-14906714D02*
X12789571Y-14749571D01*
X12775285Y-14721000D01*
X12746714Y-14706714D01*
X12703857Y-14706714D01*
X12675285Y-14721000D01*
X12661000Y-14735286D01*
X12975285Y-14906714D02*
X12946714Y-14892429D01*
X12932428Y-14878143D01*
X12918143Y-14849571D01*
X12918143Y-14763857D01*
X12932428Y-14735286D01*
X12946714Y-14721000D01*
X12975285Y-14706714D01*
X13018143Y-14706714D01*
X13046714Y-14721000D01*
X13061000Y-14735286D01*
X13075285Y-14763857D01*
X13075285Y-14849571D01*
X13061000Y-14878143D01*
X13046714Y-14892429D01*
X13018143Y-14906714D01*
X12975285Y-14906714D01*
X13246714Y-14906714D02*
X13218143Y-14892429D01*
X13203857Y-14863857D01*
X13203857Y-14606714D01*
X13475286Y-14892429D02*
X13446714Y-14906714D01*
X13389571Y-14906714D01*
X13361000Y-14892429D01*
X13346714Y-14863857D01*
X13346714Y-14749571D01*
X13361000Y-14721000D01*
X13389571Y-14706714D01*
X13446714Y-14706714D01*
X13475286Y-14721000D01*
X13489571Y-14749571D01*
X13489571Y-14778143D01*
X13346714Y-14806714D01*
X13589571Y-15021000D02*
X13603857Y-15006714D01*
X13632428Y-14963857D01*
X13646714Y-14935286D01*
X13661000Y-14892429D01*
X13675286Y-14821000D01*
X13675286Y-14763857D01*
X13661000Y-14692429D01*
X13646714Y-14649571D01*
X13632428Y-14621000D01*
X13603857Y-14578143D01*
X13589571Y-14563857D01*
X7208600Y-15090800D02*
X7361000Y-15243200D01*
X7361000Y-15090800D02*
X7208600Y-15243200D01*
X7338682Y-15220882D02*
X7338682Y-15113118D01*
X7230918Y-15113118D01*
X7230918Y-15220882D01*
X7338682Y-15220882D01*
X7789571Y-15302714D02*
X7618143Y-15302714D01*
X7703857Y-15302714D02*
X7703857Y-15002714D01*
X7675286Y-15045571D01*
X7646714Y-15074143D01*
X7618143Y-15088429D01*
X7918143Y-15274143D02*
X7932428Y-15288429D01*
X7918143Y-15302714D01*
X7903857Y-15288429D01*
X7918143Y-15274143D01*
X7918143Y-15302714D01*
X8203857Y-15002714D02*
X8061000Y-15002714D01*
X8046714Y-15145571D01*
X8061000Y-15131286D01*
X8089571Y-15117000D01*
X8161000Y-15117000D01*
X8189571Y-15131286D01*
X8203857Y-15145571D01*
X8218143Y-15174143D01*
X8218143Y-15245571D01*
X8203857Y-15274143D01*
X8189571Y-15288429D01*
X8161000Y-15302714D01*
X8089571Y-15302714D01*
X8061000Y-15288429D01*
X8046714Y-15274143D01*
X8332428Y-15031286D02*
X8346714Y-15017000D01*
X8375286Y-15002714D01*
X8446714Y-15002714D01*
X8475286Y-15017000D01*
X8489571Y-15031286D01*
X8503857Y-15059857D01*
X8503857Y-15088429D01*
X8489571Y-15131286D01*
X8318143Y-15302714D01*
X8503857Y-15302714D01*
X8632429Y-15302714D02*
X8632429Y-15102714D01*
X8632429Y-15131286D02*
X8646714Y-15117000D01*
X8675286Y-15102714D01*
X8718143Y-15102714D01*
X8746714Y-15117000D01*
X8761000Y-15145571D01*
X8761000Y-15302714D01*
X8761000Y-15145571D02*
X8775286Y-15117000D01*
X8803857Y-15102714D01*
X8846714Y-15102714D01*
X8875286Y-15117000D01*
X8889571Y-15145571D01*
X8889571Y-15302714D01*
X9032429Y-15302714D02*
X9032429Y-15102714D01*
X9032429Y-15131286D02*
X9046714Y-15117000D01*
X9075286Y-15102714D01*
X9118143Y-15102714D01*
X9146714Y-15117000D01*
X9161000Y-15145571D01*
X9161000Y-15302714D01*
X9161000Y-15145571D02*
X9175286Y-15117000D01*
X9203857Y-15102714D01*
X9246714Y-15102714D01*
X9275286Y-15117000D01*
X9289571Y-15145571D01*
X9289571Y-15302714D01*
X9875286Y-14988429D02*
X9618143Y-15374143D01*
X10261000Y-15002714D02*
X10289571Y-15002714D01*
X10318143Y-15017000D01*
X10332428Y-15031286D01*
X10346714Y-15059857D01*
X10361000Y-15117000D01*
X10361000Y-15188429D01*
X10346714Y-15245571D01*
X10332428Y-15274143D01*
X10318143Y-15288429D01*
X10289571Y-15302714D01*
X10261000Y-15302714D01*
X10232428Y-15288429D01*
X10218143Y-15274143D01*
X10203857Y-15245571D01*
X10189571Y-15188429D01*
X10189571Y-15117000D01*
X10203857Y-15059857D01*
X10218143Y-15031286D01*
X10232428Y-15017000D01*
X10261000Y-15002714D01*
X10489571Y-15274143D02*
X10503857Y-15288429D01*
X10489571Y-15302714D01*
X10475286Y-15288429D01*
X10489571Y-15274143D01*
X10489571Y-15302714D01*
X10689571Y-15002714D02*
X10718143Y-15002714D01*
X10746714Y-15017000D01*
X10761000Y-15031286D01*
X10775286Y-15059857D01*
X10789571Y-15117000D01*
X10789571Y-15188429D01*
X10775286Y-15245571D01*
X10761000Y-15274143D01*
X10746714Y-15288429D01*
X10718143Y-15302714D01*
X10689571Y-15302714D01*
X10661000Y-15288429D01*
X10646714Y-15274143D01*
X10632428Y-15245571D01*
X10618143Y-15188429D01*
X10618143Y-15117000D01*
X10632428Y-15059857D01*
X10646714Y-15031286D01*
X10661000Y-15017000D01*
X10689571Y-15002714D01*
X11046714Y-15002714D02*
X10989571Y-15002714D01*
X10961000Y-15017000D01*
X10946714Y-15031286D01*
X10918143Y-15074143D01*
X10903857Y-15131286D01*
X10903857Y-15245571D01*
X10918143Y-15274143D01*
X10932428Y-15288429D01*
X10961000Y-15302714D01*
X11018143Y-15302714D01*
X11046714Y-15288429D01*
X11061000Y-15274143D01*
X11075286Y-15245571D01*
X11075286Y-15174143D01*
X11061000Y-15145571D01*
X11046714Y-15131286D01*
X11018143Y-15117000D01*
X10961000Y-15117000D01*
X10932428Y-15131286D01*
X10918143Y-15145571D01*
X10903857Y-15174143D01*
X11261000Y-15002714D02*
X11289571Y-15002714D01*
X11318143Y-15017000D01*
X11332428Y-15031286D01*
X11346714Y-15059857D01*
X11361000Y-15117000D01*
X11361000Y-15188429D01*
X11346714Y-15245571D01*
X11332428Y-15274143D01*
X11318143Y-15288429D01*
X11289571Y-15302714D01*
X11261000Y-15302714D01*
X11232428Y-15288429D01*
X11218143Y-15274143D01*
X11203857Y-15245571D01*
X11189571Y-15188429D01*
X11189571Y-15117000D01*
X11203857Y-15059857D01*
X11218143Y-15031286D01*
X11232428Y-15017000D01*
X11261000Y-15002714D01*
X11475286Y-15002714D02*
X11475286Y-15059857D01*
X11589571Y-15002714D02*
X11589571Y-15059857D01*
X12032428Y-15417000D02*
X12018143Y-15402714D01*
X11989571Y-15359857D01*
X11975285Y-15331286D01*
X11961000Y-15288429D01*
X11946714Y-15217000D01*
X11946714Y-15159857D01*
X11961000Y-15088429D01*
X11975285Y-15045571D01*
X11989571Y-15017000D01*
X12018143Y-14974143D01*
X12032428Y-14959857D01*
X12275285Y-15002714D02*
X12218143Y-15002714D01*
X12189571Y-15017000D01*
X12175285Y-15031286D01*
X12146714Y-15074143D01*
X12132428Y-15131286D01*
X12132428Y-15245571D01*
X12146714Y-15274143D01*
X12161000Y-15288429D01*
X12189571Y-15302714D01*
X12246714Y-15302714D01*
X12275285Y-15288429D01*
X12289571Y-15274143D01*
X12303857Y-15245571D01*
X12303857Y-15174143D01*
X12289571Y-15145571D01*
X12275285Y-15131286D01*
X12246714Y-15117000D01*
X12189571Y-15117000D01*
X12161000Y-15131286D01*
X12146714Y-15145571D01*
X12132428Y-15174143D01*
X12661000Y-15302714D02*
X12661000Y-15002714D01*
X12789571Y-15302714D02*
X12789571Y-15145571D01*
X12775285Y-15117000D01*
X12746714Y-15102714D01*
X12703857Y-15102714D01*
X12675285Y-15117000D01*
X12661000Y-15131286D01*
X12975285Y-15302714D02*
X12946714Y-15288429D01*
X12932428Y-15274143D01*
X12918143Y-15245571D01*
X12918143Y-15159857D01*
X12932428Y-15131286D01*
X12946714Y-15117000D01*
X12975285Y-15102714D01*
X13018143Y-15102714D01*
X13046714Y-15117000D01*
X13061000Y-15131286D01*
X13075285Y-15159857D01*
X13075285Y-15245571D01*
X13061000Y-15274143D01*
X13046714Y-15288429D01*
X13018143Y-15302714D01*
X12975285Y-15302714D01*
X13246714Y-15302714D02*
X13218143Y-15288429D01*
X13203857Y-15259857D01*
X13203857Y-15002714D01*
X13475286Y-15288429D02*
X13446714Y-15302714D01*
X13389571Y-15302714D01*
X13361000Y-15288429D01*
X13346714Y-15259857D01*
X13346714Y-15145571D01*
X13361000Y-15117000D01*
X13389571Y-15102714D01*
X13446714Y-15102714D01*
X13475286Y-15117000D01*
X13489571Y-15145571D01*
X13489571Y-15174143D01*
X13346714Y-15202714D01*
X13603857Y-15288429D02*
X13632428Y-15302714D01*
X13689571Y-15302714D01*
X13718143Y-15288429D01*
X13732428Y-15259857D01*
X13732428Y-15245571D01*
X13718143Y-15217000D01*
X13689571Y-15202714D01*
X13646714Y-15202714D01*
X13618143Y-15188429D01*
X13603857Y-15159857D01*
X13603857Y-15145571D01*
X13618143Y-15117000D01*
X13646714Y-15102714D01*
X13689571Y-15102714D01*
X13718143Y-15117000D01*
X13832428Y-15417000D02*
X13846714Y-15402714D01*
X13875286Y-15359857D01*
X13889571Y-15331286D01*
X13903857Y-15288429D01*
X13918143Y-15217000D01*
X13918143Y-15159857D01*
X13903857Y-15088429D01*
X13889571Y-15045571D01*
X13875286Y-15017000D01*
X13846714Y-14974143D01*
X13832428Y-14959857D01*
M02*
