M48
;DRILL file {KiCad 4.0.4+e1-6308~48~ubuntu14.04.1-stable} date Sun Sep  4 20:51:30 2016
;FORMAT={-:-/ absolute / inch / decimal}
FMAT,2
INCH,TZ
T1C0.016
T2C0.024
T3C0.031
T4C0.039
T5C0.040
T6C0.045
T7C0.050
T8C0.060
%
G90
G05
M72
T1
X3.025Y-3.425
X3.025Y-3.45
X3.025Y-3.475
X3.025Y-3.5
X3.025Y-3.525
X3.025Y-3.55
X3.025Y-3.575
X3.05Y-3.425
X3.05Y-3.45
X3.05Y-3.475
X3.05Y-3.5
X3.05Y-3.525
X3.05Y-3.55
X3.05Y-3.575
X3.0574Y-2.85
X3.075Y-3.425
X3.075Y-3.45
X3.075Y-3.475
X3.075Y-3.5
X3.075Y-3.525
X3.075Y-3.55
X3.075Y-3.575
X3.1Y-2.645
X3.1Y-3.06
X3.1Y-3.425
X3.1Y-3.45
X3.1Y-3.475
X3.1Y-3.5
X3.1Y-3.525
X3.1Y-3.55
X3.1Y-3.575
X3.125Y-3.425
X3.125Y-3.45
X3.125Y-3.475
X3.125Y-3.5
X3.125Y-3.525
X3.125Y-3.55
X3.125Y-3.575
X3.15Y-3.425
X3.15Y-3.45
X3.15Y-3.475
X3.15Y-3.5
X3.15Y-3.525
X3.15Y-3.55
X3.15Y-3.575
X3.175Y-3.425
X3.175Y-3.45
X3.175Y-3.475
X3.175Y-3.5
X3.175Y-3.525
X3.175Y-3.55
X3.175Y-3.575
X3.2425Y-2.91
X3.2426Y-2.7909
X3.245Y-2.85
X3.375Y-3.2
X3.375Y-3.25
X3.425Y-3.2
X3.425Y-3.25
X3.605Y-2.85
X3.625Y-3.425
X3.625Y-3.45
X3.625Y-3.475
X3.625Y-3.5
X3.625Y-3.525
X3.625Y-3.55
X3.625Y-3.575
X3.65Y-3.425
X3.65Y-3.45
X3.65Y-3.475
X3.65Y-3.5
X3.65Y-3.525
X3.65Y-3.55
X3.65Y-3.575
X3.655Y-4.42
X3.66Y-4.04
X3.675Y-3.425
X3.675Y-3.45
X3.675Y-3.475
X3.675Y-3.5
X3.675Y-3.525
X3.675Y-3.55
X3.675Y-3.575
X3.6925Y-4.095
X3.7Y-2.645
X3.7Y-3.06
X3.7Y-3.425
X3.7Y-3.45
X3.7Y-3.475
X3.7Y-3.5
X3.7Y-3.525
X3.7Y-3.55
X3.7Y-3.575
X3.725Y-3.425
X3.725Y-3.45
X3.725Y-3.475
X3.725Y-3.5
X3.725Y-3.525
X3.725Y-3.55
X3.725Y-3.575
X3.74Y-3.8975
X3.74Y-4.04
X3.74Y-4.33
X3.74Y-4.425
X3.75Y-3.425
X3.75Y-3.45
X3.75Y-3.475
X3.75Y-3.5
X3.75Y-3.525
X3.75Y-3.55
X3.75Y-3.575
X3.775Y-3.425
X3.775Y-3.45
X3.775Y-3.475
X3.775Y-3.5
X3.775Y-3.525
X3.775Y-3.55
X3.775Y-3.575
X3.7925Y-2.91
X3.7926Y-2.7929
X3.795Y-2.85
X3.8025Y-3.8475
X3.805Y-4.1725
X3.845Y-4.0375
X3.845Y-4.355
X3.87Y-4.23
X3.8775Y-4.4775
X3.8875Y-3.9
X3.89Y-3.435
X3.915Y-3.65
X3.9275Y-4.2825
X3.95Y-3.49
X3.99Y-4.04
X3.99Y-4.13
X3.99Y-4.33
X3.99Y-4.425
X4.0869Y-4.23
X4.0875Y-3.9775
X4.125Y-3.175
X4.125Y-3.2
X4.125Y-3.225
X4.125Y-3.25
X4.125Y-3.275
X4.125Y-3.3
X4.125Y-3.325
X4.125Y-3.625
X4.125Y-3.65
X4.125Y-3.675
X4.125Y-3.7
X4.125Y-3.725
X4.125Y-3.75
X4.125Y-3.775
X4.14Y-4.3625
X4.15Y-3.175
X4.15Y-3.2
X4.15Y-3.225
X4.15Y-3.25
X4.15Y-3.275
X4.15Y-3.3
X4.15Y-3.325
X4.15Y-3.625
X4.15Y-3.65
X4.15Y-3.675
X4.15Y-3.7
X4.15Y-3.725
X4.15Y-3.75
X4.15Y-3.775
X4.155Y-2.85
X4.16Y-4.4425
X4.175Y-3.175
X4.175Y-3.2
X4.175Y-3.225
X4.175Y-3.25
X4.175Y-3.275
X4.175Y-3.3
X4.175Y-3.325
X4.175Y-3.625
X4.175Y-3.65
X4.175Y-3.675
X4.175Y-3.7
X4.175Y-3.725
X4.175Y-3.75
X4.175Y-3.775
X4.2Y-3.175
X4.2Y-3.2
X4.2Y-3.225
X4.2Y-3.25
X4.2Y-3.275
X4.2Y-3.3
X4.2Y-3.325
X4.2Y-3.625
X4.2Y-3.65
X4.2Y-3.675
X4.2Y-3.7
X4.2Y-3.725
X4.2Y-3.75
X4.2Y-3.775
X4.2125Y-4.39
X4.225Y-3.175
X4.225Y-3.2
X4.225Y-3.225
X4.225Y-3.25
X4.225Y-3.275
X4.225Y-3.3
X4.225Y-3.325
X4.225Y-3.625
X4.225Y-3.65
X4.225Y-3.675
X4.225Y-3.7
X4.225Y-3.725
X4.225Y-3.75
X4.225Y-3.775
X4.25Y-2.645
X4.25Y-3.0567
X4.25Y-3.175
X4.25Y-3.2
X4.25Y-3.225
X4.25Y-3.25
X4.25Y-3.275
X4.25Y-3.3
X4.25Y-3.325
X4.25Y-3.625
X4.25Y-3.65
X4.25Y-3.675
X4.25Y-3.7
X4.25Y-3.725
X4.25Y-3.75
X4.25Y-3.775
X4.275Y-3.175
X4.275Y-3.2
X4.275Y-3.225
X4.275Y-3.25
X4.275Y-3.275
X4.275Y-3.3
X4.275Y-3.325
X4.275Y-3.625
X4.275Y-3.65
X4.275Y-3.675
X4.275Y-3.7
X4.275Y-3.725
X4.275Y-3.75
X4.275Y-3.775
X4.3Y-4.205
X4.3025Y-3.8475
X4.3425Y-2.91
X4.3426Y-2.7909
X4.345Y-2.85
X4.3875Y-4.46
X4.4075Y-3.8475
X4.4125Y-3.75
X4.455Y-4.165
X4.92Y-3.92
X4.95Y-3.84
X4.98Y-3.8775
X4.985Y-3.14
X5.0125Y-3.8925
X5.3574Y-2.85
X5.375Y-3.175
X5.375Y-3.2
X5.375Y-3.225
X5.375Y-3.25
X5.375Y-3.275
X5.375Y-3.3
X5.375Y-3.325
X5.375Y-3.625
X5.375Y-3.65
X5.375Y-3.675
X5.375Y-3.7
X5.375Y-3.725
X5.375Y-3.75
X5.375Y-3.775
X5.4Y-3.175
X5.4Y-3.2
X5.4Y-3.225
X5.4Y-3.25
X5.4Y-3.275
X5.4Y-3.3
X5.4Y-3.325
X5.4Y-3.625
X5.4Y-3.65
X5.4Y-3.675
X5.4Y-3.7
X5.4Y-3.725
X5.4Y-3.75
X5.4Y-3.775
X5.425Y-3.175
X5.425Y-3.2
X5.425Y-3.225
X5.425Y-3.25
X5.425Y-3.275
X5.425Y-3.3
X5.425Y-3.325
X5.425Y-3.625
X5.425Y-3.65
X5.425Y-3.675
X5.425Y-3.7
X5.425Y-3.725
X5.425Y-3.75
X5.425Y-3.775
X5.44Y-2.645
X5.45Y-3.0567
X5.45Y-3.175
X5.45Y-3.2
X5.45Y-3.225
X5.45Y-3.25
X5.45Y-3.275
X5.45Y-3.3
X5.45Y-3.325
X5.45Y-3.625
X5.45Y-3.65
X5.45Y-3.675
X5.45Y-3.7
X5.45Y-3.725
X5.45Y-3.75
X5.45Y-3.775
X5.475Y-3.175
X5.475Y-3.2
X5.475Y-3.225
X5.475Y-3.25
X5.475Y-3.275
X5.475Y-3.3
X5.475Y-3.325
X5.475Y-3.625
X5.475Y-3.65
X5.475Y-3.675
X5.475Y-3.7
X5.475Y-3.725
X5.475Y-3.75
X5.475Y-3.775
X5.5Y-3.175
X5.5Y-3.2
X5.5Y-3.225
X5.5Y-3.25
X5.5Y-3.275
X5.5Y-3.3
X5.5Y-3.325
X5.5Y-3.625
X5.5Y-3.65
X5.5Y-3.675
X5.5Y-3.7
X5.5Y-3.725
X5.5Y-3.75
X5.5Y-3.775
X5.525Y-3.175
X5.525Y-3.2
X5.525Y-3.225
X5.525Y-3.25
X5.525Y-3.275
X5.525Y-3.3
X5.525Y-3.325
X5.525Y-3.625
X5.525Y-3.65
X5.525Y-3.675
X5.525Y-3.7
X5.525Y-3.725
X5.525Y-3.75
X5.525Y-3.775
X5.54Y-2.91
X5.5426Y-2.7909
X5.545Y-2.85
X5.6075Y-4.4575
X5.955Y-2.85
X5.975Y-3.425
X5.975Y-3.45
X5.975Y-3.475
X5.975Y-3.5
X5.975Y-3.525
X5.975Y-3.55
X5.975Y-3.575
X6.Y-3.425
X6.Y-3.45
X6.Y-3.475
X6.Y-3.5
X6.Y-3.525
X6.Y-3.55
X6.Y-3.575
X6.025Y-3.425
X6.025Y-3.45
X6.025Y-3.475
X6.025Y-3.5
X6.025Y-3.525
X6.025Y-3.55
X6.025Y-3.575
X6.045Y-2.64
X6.05Y-3.425
X6.05Y-3.45
X6.05Y-3.475
X6.05Y-3.5
X6.05Y-3.525
X6.05Y-3.55
X6.05Y-3.575
X6.075Y-3.425
X6.075Y-3.45
X6.075Y-3.475
X6.075Y-3.5
X6.075Y-3.525
X6.075Y-3.55
X6.075Y-3.575
X6.0942Y-3.2737
X6.1Y-3.425
X6.1Y-3.45
X6.1Y-3.475
X6.1Y-3.5
X6.1Y-3.525
X6.1Y-3.55
X6.1Y-3.575
X6.125Y-3.425
X6.125Y-3.45
X6.125Y-3.475
X6.125Y-3.5
X6.125Y-3.525
X6.125Y-3.55
X6.125Y-3.575
X6.14Y-2.85
X6.1425Y-2.91
X6.1426Y-2.7929
X6.16Y-4.445
X6.2Y-3.2
X6.2Y-3.25
X6.25Y-3.2
X6.25Y-3.25
X6.455Y-2.85
X6.525Y-3.425
X6.525Y-3.45
X6.525Y-3.475
X6.525Y-3.5
X6.525Y-3.525
X6.525Y-3.55
X6.525Y-3.575
X6.55Y-3.425
X6.55Y-3.45
X6.55Y-3.475
X6.55Y-3.5
X6.55Y-3.525
X6.55Y-3.55
X6.55Y-3.575
X6.575Y-3.425
X6.575Y-3.45
X6.575Y-3.475
X6.575Y-3.5
X6.575Y-3.525
X6.575Y-3.55
X6.575Y-3.575
X6.595Y-2.64
X6.6Y-3.425
X6.6Y-3.45
X6.6Y-3.475
X6.6Y-3.5
X6.6Y-3.525
X6.6Y-3.55
X6.6Y-3.575
X6.625Y-3.425
X6.625Y-3.45
X6.625Y-3.475
X6.625Y-3.5
X6.625Y-3.525
X6.625Y-3.55
X6.625Y-3.575
X6.64Y-2.85
X6.64Y-2.9075
X6.6426Y-2.7909
X6.6442Y-3.2737
X6.65Y-3.425
X6.65Y-3.45
X6.65Y-3.475
X6.65Y-3.5
X6.65Y-3.525
X6.65Y-3.55
X6.65Y-3.575
X6.675Y-3.425
X6.675Y-3.45
X6.675Y-3.475
X6.675Y-3.5
X6.675Y-3.525
X6.675Y-3.55
X6.675Y-3.575
T2
X4.3Y-4.05
X4.35Y-4.05
X4.4Y-4.05
X5.3225Y-4.055
X5.3725Y-4.055
X5.4225Y-4.055
T3
X6.47Y-4.06
X6.47Y-4.1584
X6.47Y-4.3116
X6.47Y-4.41
T4
X4.3875Y-4.355
X4.4875Y-4.355
X4.5875Y-4.355
X4.6875Y-4.355
X4.765Y-3.74
X4.7875Y-4.355
X4.865Y-3.74
X4.8875Y-4.355
X5.11Y-4.23
X5.11Y-4.33
X5.11Y-4.43
X5.385Y-4.235
X5.385Y-4.335
X5.385Y-4.435
T5
X4.55Y-2.65
X4.55Y-2.75
X4.55Y-2.85
X4.55Y-2.95
X4.55Y-3.05
X4.55Y-3.15
X4.55Y-3.25
X4.55Y-3.35
X4.55Y-3.45
X4.55Y-3.55
X4.55Y-3.65
X4.55Y-3.75
X4.55Y-3.85
X4.55Y-3.95
X4.55Y-4.05
X4.79Y-2.925
X4.79Y-3.025
X4.79Y-3.125
X4.79Y-3.225
X4.79Y-3.325
X4.89Y-2.925
X4.89Y-3.025
X4.89Y-3.125
X4.89Y-3.225
X4.89Y-3.325
X5.15Y-2.65
X5.15Y-2.75
X5.15Y-2.85
X5.15Y-2.95
X5.15Y-3.05
X5.15Y-3.15
X5.15Y-3.25
X5.15Y-3.35
X5.15Y-3.45
X5.15Y-3.55
X5.15Y-3.65
X5.15Y-3.75
X5.15Y-3.85
X5.15Y-3.95
X5.15Y-4.05
T6
X6.67Y-4.16
X6.67Y-4.26
X6.67Y-4.36
T7
X3.2Y-4.21
T8
X3.075Y-4.085
X3.075Y-4.335
X3.325Y-4.085
X3.325Y-4.335
X5.75Y-4.34
X5.95Y-4.34
T0
M30
